<svg width="85" height="66" viewBox="0 0 85 66" fill="none" xmlns="http://www.w3.org/2000/svg">
<g id="Group 8">
<path id="Vector" d="M3.38898 17.9058C1.91329 21.6058 1.5664 25.4139 2.57552 29.3415C3.36888 32.4291 4.81909 35.1 6.79969 37.4494C8.88759 39.9259 11.3712 41.8319 14.1312 43.3217C15.7102 44.174 15.9872 43.9 16.0108 46.548C16.0351 49.2698 16.044 51.9915 16.0662 54.7135C16.0709 55.2987 16.1038 55.8833 16.1235 56.4652C16.7258 56.5012 16.9556 56.0341 17.2586 55.7247C19.8404 53.0873 22.4252 50.4528 24.9746 47.7787C25.573 47.1509 26.1803 46.9345 27.0143 46.9474C29.4648 46.9854 31.9122 47.0711 34.3629 46.6651C38.3416 46.0062 42.1186 44.7462 45.6413 42.6415C49.1362 40.5536 52.1011 37.8103 54.2792 34.1418C55.8762 31.4522 56.8071 28.5074 56.9749 25.3159C57.1603 21.7913 56.3117 18.5203 54.6782 15.4861C52.8493 12.089 50.286 9.47471 47.2282 7.40957C42.5387 4.24231 37.3778 2.71443 31.9063 2.31326C28.3988 2.05604 24.9323 2.4126 21.5152 3.29324C17.3827 4.35863 13.5543 6.15387 10.1408 8.93264C7.20667 11.3214 4.85415 14.2322 3.38898 17.9058ZM47.947 33.0815C47.8439 33.1174 47.7402 33.1628 47.634 33.1742C47.4176 33.1973 47.1993 33.2072 46.9817 33.2107C41.0412 33.3009 29.16 33.4545 29.1597 33.4428C23.4902 33.4864 17.821 33.5305 12.1515 33.5721C11.7158 33.5754 11.2787 33.5784 10.8444 33.5478C10.3565 33.513 10.1073 33.2523 10.0821 32.8093C10.0575 32.3787 10.328 32.0384 10.7623 31.9859C11.0323 31.9532 11.306 31.9479 11.5781 31.9444C17.6274 31.8605 23.6768 31.7654 29.7266 31.7003C35.2322 31.641 40.7383 31.6121 46.2444 31.5769C46.7876 31.5733 47.3341 31.5926 47.8734 31.657C48.1565 31.6907 48.3463 31.9416 48.4206 32.2474C48.4943 32.5508 48.2425 32.9776 47.947 33.0815ZM10.1996 24.8364C10.1658 24.4585 10.4745 24.0122 10.8581 23.9573C11.2335 23.9035 11.6164 23.8949 11.9963 23.8931C13.9554 23.8848 15.9147 23.8858 17.8738 23.882C21.3568 23.8754 24.8397 23.8658 28.3229 23.8625C28.757 23.862 29.1929 23.8729 29.6249 23.9157C29.9592 23.9486 30.2039 24.2794 30.2198 24.6438C30.2359 25.0135 30.0422 25.3779 29.7254 25.4656C29.4141 25.5515 29.0884 25.6106 28.7679 25.6169C27.7343 25.6374 26.7001 25.6298 25.666 25.6303C23.8156 25.6314 20.1151 25.6397 20.1151 25.644C17.4484 25.644 14.7817 25.6466 12.115 25.6412C11.681 25.6402 11.2445 25.6265 10.8135 25.5766C10.5087 25.5414 10.2291 25.1646 10.1996 24.8364ZM33.4879 23.8921C33.6438 23.8447 33.8049 23.7961 33.9652 23.7882C35.7584 23.6995 37.5515 23.6088 39.3453 23.5378C41.846 23.4388 44.3475 23.3574 46.8486 23.2652C47.2862 23.2489 47.7369 23.2074 48.1018 23.5196C48.257 23.6526 48.4431 23.9101 48.4206 24.0809C48.3867 24.3379 48.2297 24.7036 48.0401 24.7819C47.6462 24.9446 47.1983 24.9927 46.7696 25.0115C43.9973 25.1331 38.4508 25.3835 38.4503 25.4043C37.1443 25.4043 35.8385 25.4086 34.5328 25.4013C34.2081 25.3995 33.8799 25.3868 33.5604 25.3321C33.2675 25.2819 33.0908 25.052 33.0394 24.7355C32.9811 24.379 33.196 23.9808 33.4879 23.8921ZM10.3843 16.1617C10.4561 16.0903 10.5839 16.0692 10.6896 16.0568C10.9058 16.0315 11.1242 16.0214 11.3418 16.016C11.9958 15.9998 12.6499 15.979 13.3039 15.977C16.1936 15.9681 19.0833 15.9818 21.9727 15.957C30.095 15.8878 38.217 15.8016 46.3393 15.7304C46.8804 15.7256 47.4248 15.7644 47.9622 15.8341C48.282 15.8754 48.5218 16.2608 48.5277 16.609C48.5333 16.9519 48.2806 17.3184 47.9742 17.3936C47.8162 17.4324 47.6541 17.461 47.4926 17.4717C47.2752 17.4861 47.0567 17.4806 46.8386 17.4806C41.005 17.4811 29.3378 17.5649 29.3378 17.607C25.3032 17.607 21.2686 17.5926 17.234 17.6133C15.3271 17.6232 13.4203 17.7015 11.5134 17.7449C11.0767 17.7548 10.6076 17.7933 10.2742 17.4395C10.1052 17.2601 9.99161 16.9354 9.99441 16.6782C9.99628 16.5029 10.2298 16.3153 10.3843 16.1617Z" fill="white"/>
<path id="Vector_2" d="M55.3039 35.5943C55.8629 35.6372 56.3474 35.701 56.8324 35.7076C61.7114 35.7765 66.5906 35.8364 71.4696 35.8979C71.8533 35.9028 72.2376 35.8946 72.6211 35.9061C72.8396 35.9125 73.0592 35.9324 73.2743 35.9719C73.6019 36.0322 73.8753 36.3733 73.8871 36.7073C73.8984 37.034 73.6245 37.4244 73.306 37.467C72.9269 37.5177 72.5422 37.5412 72.1598 37.5397C68.3214 37.5246 64.4829 37.5017 60.6444 37.4818C58.6703 37.4716 56.696 37.4772 54.7221 37.445C54.1857 37.4364 53.8047 37.6308 53.425 38.0442C52.381 39.1807 51.3355 40.3256 50.206 41.358C48.3935 43.0146 46.3532 44.2986 44.2028 45.3759C43.8178 45.5688 43.4514 45.8061 43 46.0669C43.2156 46.4612 43.3617 46.7686 43.5416 47.0506C44.6828 48.8381 46.1456 50.2624 47.8021 51.4625C51.2085 53.9299 55.0035 55.2083 59.04 55.6329C60.1286 55.7475 61.0662 56.0287 61.8913 56.7899C62.2253 57.0979 62.5825 57.3763 62.9287 57.6689C64.8324 59.2783 66.7315 60.8938 68.6441 62.4906C68.9186 62.72 69.1732 63.0775 69.7015 62.9479C69.7015 62.5845 69.7022 62.2352 69.7012 61.8856C69.6965 60.0984 69.7134 58.3104 69.6799 56.5237C69.6489 54.881 69.9135 54.5707 71.1581 54.2002C71.4209 54.1218 71.6702 53.9897 71.9271 53.8866C73.6851 53.1808 75.324 52.2287 76.8598 51.0649C78.6343 49.7204 80.1506 48.1021 81.2822 46.0861C82.9986 43.0279 83.4733 39.7765 82.5042 36.3241C82.0009 34.5307 81.1194 32.9638 79.982 31.5606C77.7129 28.7611 74.8651 26.9257 71.6685 25.6761C68.9644 24.6192 66.1481 24.1875 63.3005 23.9606C61.8737 23.8471 60.4544 24.0328 59.0379 24.2041C58.7358 24.2406 58.5308 24.3993 58.4928 24.7463C58.4733 24.9234 58.4723 25.1028 58.4573 25.2806C58.1653 28.7096 57.3222 31.9433 55.5949 34.8676C55.4827 35.0579 55.4253 35.2858 55.3039 35.5943ZM73.1221 45.2703C72.7982 45.3188 72.4689 45.3405 72.1415 45.3445C69.8941 45.3729 67.6463 45.3895 65.3986 45.418C64.1935 45.4333 61.7842 45.5448 61.7847 45.5729C58.2212 45.6002 54.6578 45.6288 51.0943 45.6507C50.8783 45.652 50.6589 45.6145 50.4466 45.5663C50.1389 45.4966 49.885 45.1164 49.893 44.773C49.9007 44.4336 50.1586 44.0725 50.4679 43.9878C50.6258 43.9447 50.7883 43.909 50.9501 43.8995C51.2235 43.8832 51.4981 43.8896 51.7722 43.8873C57.1448 43.8426 62.5177 43.8064 67.8902 43.7482C69.2594 43.7334 70.628 43.6382 71.9973 43.604C72.3755 43.5946 72.7602 43.6438 73.1334 43.7173C73.4678 43.7832 73.6818 44.1307 73.6832 44.5012C73.6846 44.875 73.45 45.2216 73.1221 45.2703Z" fill="white"/>
<path id="Vector_3" d="M0.0157944 23.7537C-0.133251 27.5719 0.775874 31.147 2.60286 34.4374C4.95765 38.6783 8.29893 41.7754 12.2967 44.1078C12.7323 44.3619 13.1726 44.6082 13.6207 44.8343C13.9638 45.0077 14.1032 45.2915 14.1082 45.6792C14.1185 46.509 14.1322 47.3391 14.1405 48.169C14.1716 51.311 14.1935 54.4532 14.2386 57.5949C14.2452 58.06 14.3204 58.5336 14.4315 58.9842C14.527 59.3716 15.0888 59.5694 15.3958 59.3419C15.7107 59.1089 16.0057 58.8385 16.2842 58.556C19.1715 55.63 22.0505 52.695 24.9387 49.7701C26.4853 48.2038 25.9071 48.4066 28.118 48.4513C30.7119 48.5038 33.2806 48.3134 35.8403 47.8227C37.526 47.4996 39.1615 47.0035 40.8001 46.4989C41.5812 46.2582 41.5927 46.2486 42.0106 46.9325C42.8625 48.3266 43.8438 49.5934 45.0161 50.6941C48.5708 54.0313 52.7723 55.7996 57.3635 56.6287C58.391 56.8143 59.424 56.9663 60.4546 57.1339C61.3359 57.8432 62.2205 58.5479 63.098 59.2625C65.2493 61.0138 67.3956 62.7723 69.5492 64.5203C69.811 64.7328 70.0956 64.9184 70.3867 65.0811C70.6614 65.2344 71.0592 65.0948 71.2861 64.8366C71.6599 64.4114 71.6995 63.8918 71.6944 63.347C71.6778 61.6276 71.6439 59.9078 71.6689 58.1892C71.6816 57.3139 71.4755 56.417 71.8203 55.5623C72.474 55.2569 73.128 54.9523 73.7812 54.6459C74.1345 54.4803 74.4915 54.3232 74.8382 54.1432C77.6022 52.7079 80.0303 50.8045 81.9688 48.2162C85.7994 43.1015 86.0676 36.4985 82.3837 31.1165C81.3318 29.5799 80.0723 28.2479 78.6351 27.131C74.7891 24.1418 70.4586 22.5271 65.7575 22.1244C63.8432 21.9605 61.9075 22.0818 59.9817 22.0757C59.8167 22.0752 59.6518 22.0978 59.4867 22.1029C58.7182 22.1267 58.6042 22.045 58.5019 21.2844C58.0071 17.6084 56.5558 14.3976 54.4199 11.5181C51.8222 8.01618 48.5205 5.50378 44.7847 3.61255C40.02 1.20067 34.9538 0.252525 29.5125 0.0621338C27.6456 0.1817 25.5618 0.323604 23.4912 0.678494C19.5399 1.35578 15.7944 2.68217 12.2951 4.76658C8.47602 7.04138 5.24702 10.026 2.90403 14.044C1.17019 17.0169 0.152105 20.2591 0.0157944 23.7537ZM21.3079 2.90582C24.7555 2.02342 28.2527 1.6665 31.7913 1.92416C37.3114 2.32602 42.5181 3.85651 47.2494 7.02919C50.3346 9.09811 52.9204 11.7166 54.7656 15.1196C56.4136 18.1592 57.2697 21.4355 57.0827 24.9661C56.9133 28.1632 55.9743 31.113 54.3631 33.8071C52.1656 37.4819 49.1743 40.2299 45.6483 42.3214C42.0944 44.4294 38.2835 45.6919 34.2697 46.3519C31.7972 46.7583 29.3278 46.6728 26.8558 46.6347C26.0144 46.6217 25.4017 46.8385 24.7979 47.4673C22.226 50.146 19.6184 52.7851 17.0134 55.427C16.7078 55.7369 16.4761 56.2048 15.8682 56.1687C15.8481 55.5859 15.8151 55 15.8104 54.4141C15.788 51.6877 15.7793 48.9613 15.7545 46.2346C15.7307 43.5821 15.4512 43.8567 13.8582 43.0028C11.0737 41.5104 8.568 39.6011 6.46155 37.1204C4.46334 34.7669 3.00001 32.0916 2.19983 28.9986C1.18174 25.0646 1.53195 21.2499 3.02052 17.5434C4.49872 13.8635 6.87214 10.9477 9.8323 8.55486C13.2759 5.77134 17.1386 3.97277 21.3079 2.90582ZM58.7821 24.4234C58.8203 24.0781 59.0261 23.9202 59.3294 23.8839C60.752 23.7136 62.1771 23.5285 63.6095 23.6417C66.4688 23.8672 69.2966 24.2969 72.0118 25.3484C75.2214 26.5915 78.0809 28.4175 80.3593 31.2026C81.5014 32.5985 82.3865 34.1577 82.8919 35.9415C83.8649 39.3762 83.3883 42.6108 81.6648 45.6533C80.5286 47.659 79.0061 49.2689 77.2244 50.6065C75.6823 51.7643 74.0366 52.7115 72.2714 53.4136C72.0134 53.5162 71.7632 53.6479 71.4993 53.7256C70.2499 54.0942 69.9841 54.4029 70.015 56.0372C70.0487 57.8147 70.0317 59.5932 70.0364 61.3715C70.0374 61.7193 70.0367 62.0668 70.0367 62.4283C69.5065 62.5573 69.2509 62.2013 68.975 61.9734C67.0548 60.3848 65.1477 58.7776 63.2362 57.1765C62.8886 56.8854 62.5299 56.6087 62.1945 56.302C61.3661 55.5448 60.4249 55.265 59.3316 55.151C55.2785 54.7286 51.468 53.4565 48.0477 51.002C46.3844 49.8084 44.9156 48.3911 43.7697 46.6129C43.5891 46.3323 43.4424 46.0264 43.2259 45.6342C43.6791 45.3745 44.0471 45.1387 44.4336 44.9468C46.5929 43.875 48.6415 42.5974 50.4614 40.9496C51.5955 39.9225 52.6452 38.7835 53.6935 37.6528C54.0748 37.2415 54.4576 37.0481 54.996 37.0567C56.9779 37.0887 58.9603 37.0831 60.9425 37.0933C64.7967 37.1131 68.6509 37.1359 72.5051 37.1509C72.8888 37.1524 73.2751 37.1291 73.656 37.0786C73.9758 37.0362 74.2508 36.6478 74.2394 36.3228C74.2279 35.9905 73.9531 35.6511 73.6242 35.5912C73.4081 35.5519 73.1874 35.5321 72.9683 35.5257C72.5832 35.5143 72.1976 35.5224 71.812 35.5176C66.9128 35.4562 62.0139 35.3968 57.115 35.3282C56.628 35.3214 56.1414 35.2582 55.5802 35.2155C55.7021 34.9086 55.7596 34.6819 55.8721 34.4933C57.6064 31.5841 58.4531 28.3667 58.7462 24.9557C58.7618 24.7777 58.7625 24.5993 58.7821 24.4234Z" fill="#B51F24"/>
<path id="Vector_4" d="M48.4304 31.6062C47.882 31.5363 47.3263 31.5154 46.7739 31.5192C41.1752 31.5572 35.5762 31.5886 29.9775 31.6533C23.8259 31.724 17.6745 31.8272 11.5229 31.9183C11.2462 31.9224 10.9678 31.9282 10.6933 31.9634C10.2517 32.0204 9.9764 32.3897 10.0016 32.8576C10.0273 33.3387 10.2807 33.6219 10.7767 33.6596C11.2184 33.6932 11.6629 33.6896 12.1059 33.686C17.8711 33.6409 23.6359 33.593 29.401 33.5456C29.4013 33.5583 41.4828 33.3915 47.5236 33.2935C47.7449 33.29 47.9669 33.2792 48.187 33.2539C48.2949 33.2415 48.4004 33.1925 48.5053 33.1532C48.8057 33.0406 49.0617 32.5769 48.9868 32.2472C48.9113 31.9153 48.7183 31.6431 48.4304 31.6062Z" fill="#B51F24"/>
<path id="Vector_5" d="M11.5374 17.4108C13.4674 17.3643 15.3973 17.2802 17.3273 17.2696C21.4108 17.2476 25.4942 17.2628 29.5777 17.2628C29.5777 17.2177 41.3861 17.1276 47.2904 17.1271C47.5111 17.1271 47.7323 17.1328 47.9523 17.1176C48.1158 17.1061 48.2798 17.0754 48.4397 17.0338C48.7499 16.953 49.0056 16.5597 48.9999 16.1916C48.994 15.8178 48.7513 15.4041 48.4276 15.3598C47.8839 15.2852 47.3327 15.2436 46.785 15.2485C38.5644 15.3249 30.344 15.4174 22.1234 15.4917C19.199 15.5181 16.2743 15.5037 13.3496 15.5132C12.6876 15.5154 12.0257 15.5374 11.3637 15.5551C11.1435 15.5608 10.9225 15.5717 10.7037 15.5989C10.5967 15.6122 10.4673 15.6348 10.3947 15.7115C10.2385 15.8763 10.0019 16.0774 10.0001 16.2664C9.99721 16.5425 10.1122 16.891 10.2832 17.0836C10.6206 17.4628 11.0954 17.4214 11.5374 17.4108Z" fill="#B51F24"/>
<path id="Vector_6" d="M10.6157 24.9691C11.0462 24.9996 11.4821 25.008 11.9157 25.0084C14.5792 25.0117 17.2427 25.0101 19.9062 25.0101C19.9062 25.0073 23.6027 25.0024 25.4507 25.0018C26.4833 25.0015 27.5165 25.0061 28.5489 24.9936C28.869 24.9898 29.1943 24.9538 29.5053 24.9015C29.8219 24.8482 30.0152 24.6264 29.9991 24.4013C29.9832 24.1797 29.739 23.9784 29.4049 23.9582C28.9734 23.9323 28.538 23.9255 28.1044 23.9258C24.6256 23.9278 21.1465 23.9337 17.6677 23.9377C15.7109 23.94 13.7539 23.9394 11.7971 23.9445C11.4179 23.9454 11.0355 23.9508 10.6603 23.9835C10.2769 24.0169 9.96869 24.2886 10.0025 24.5186C10.032 24.7181 10.3112 24.9475 10.6157 24.9691Z" fill="#B51F24"/>
<path id="Vector_7" d="M33.5519 24.9735C33.8842 25.0011 34.2254 25.0075 34.5626 25.0084C35.9199 25.012 37.2774 25.0099 38.6346 25.0099C38.6351 24.9994 44.4006 24.8731 47.282 24.8119C47.7273 24.8024 48.1931 24.7782 48.6025 24.6961C48.7996 24.6567 48.9631 24.4723 48.9981 24.3427C49.0214 24.2566 48.828 24.1268 48.6667 24.0598C48.2876 23.9022 47.8192 23.9233 47.3641 23.9315C44.7645 23.978 42.1645 24.0191 39.5649 24.069C37.7004 24.1047 35.8365 24.1505 33.9727 24.1952C33.806 24.1991 33.6389 24.2237 33.4765 24.2476C33.1731 24.2923 32.9498 24.4931 33.0098 24.6728C33.064 24.8323 33.2477 24.9482 33.5519 24.9735Z" fill="#B51F24"/>
<path id="Vector_8" d="M73.4453 43.5719C73.0688 43.494 72.681 43.4418 72.2992 43.4518C70.9179 43.4881 69.5373 43.5889 68.1559 43.6046C62.7359 43.6662 57.3159 43.7049 51.8959 43.7519C51.6194 43.7543 51.3424 43.7476 51.0666 43.7649C50.9034 43.7751 50.7392 43.8127 50.5802 43.8584C50.2682 43.9481 50.008 44.3304 50.0002 44.6901C49.9921 45.054 50.2482 45.4565 50.5586 45.5305C50.7728 45.5816 50.9941 45.6214 51.2121 45.62C54.807 45.597 58.4018 45.5665 61.9967 45.5376C61.9964 45.5078 64.4267 45.3897 65.6424 45.3735C67.9097 45.3435 70.1772 45.3256 72.4447 45.2956C72.7748 45.2913 73.107 45.2683 73.434 45.217C73.765 45.1651 74.0016 44.7983 74 44.4023C73.9986 44.0098 73.7827 43.6416 73.4453 43.5719Z" fill="#B51F24"/>
</g>
</svg>
