<svg width="40" height="40" viewBox="0 0 40 40" fill="none" xmlns="http://www.w3.org/2000/svg">
<g clip-path="url(#clip0_259_378)">
<path fill-rule="evenodd" clip-rule="evenodd" d="M15.0516 28.866H24.9484C24.9484 23.67 32.3711 23.8348 32.3711 13.1959C32.3711 6.36361 26.8324 0.824829 20 0.824829C13.1676 0.824829 7.62891 6.36361 7.62891 13.1959C7.62891 23.8347 15.0516 23.67 15.0516 28.866Z" fill="#FFC144"/>
<path fill-rule="evenodd" clip-rule="evenodd" d="M24.9488 28.8661H15.052C14.0313 28.8661 13.1963 29.7011 13.1963 30.7218C13.1963 31.7424 14.0314 32.5774 15.052 32.5774H24.9488C25.9693 32.5774 26.8045 31.7424 26.8045 30.7218C26.8045 29.7011 25.9694 28.8661 24.9488 28.8661Z" fill="#6D91AC"/>
<path fill-rule="evenodd" clip-rule="evenodd" d="M15.0518 32.5774H24.9486V35.8764H15.0518V32.5774Z" fill="#A7BDCD"/>
<path fill-rule="evenodd" clip-rule="evenodd" d="M24.9486 35.8763H15.0518V37.5257C15.0518 38.433 15.794 39.1752 16.7012 39.1752H23.2991C24.2064 39.1752 24.9486 38.433 24.9486 37.5257V35.8763Z" fill="#A7BDCD"/>
<path fill-rule="evenodd" clip-rule="evenodd" d="M20.0005 20.0756C20.9115 20.0756 21.6499 19.3372 21.6499 18.4261C21.6499 18.137 21.7689 17.8351 22.0135 17.4675C22.3636 16.9413 22.9549 16.3027 23.7752 15.4824C24.2676 14.99 24.6695 14.3966 24.9476 13.7308C25.2135 13.0944 25.3613 12.4008 25.3613 11.6762C25.3613 10.1961 24.7612 8.85587 23.791 7.88573C22.8207 6.91551 21.4805 6.31543 20.0005 6.31543C18.5203 6.31543 17.1801 6.91551 16.21 7.88573C15.2397 8.85587 14.6396 10.1961 14.6396 11.6762C14.6396 12.5872 15.3781 13.3257 16.2891 13.3257C17.2001 13.3257 17.9386 12.5872 17.9386 11.6762C17.9386 11.1068 18.1694 10.5912 18.5424 10.2182C18.9154 9.84515 19.431 9.61439 20.0005 9.61439C20.57 9.61439 21.0855 9.84515 21.4585 10.2182C21.8315 10.5912 22.0623 11.1068 22.0623 11.6762C22.0623 11.9611 22.0065 12.2281 21.9064 12.468C21.8016 12.719 21.6425 12.9503 21.4428 13.15C20.4935 14.0993 19.7804 14.8813 19.2687 15.6505C18.6514 16.5782 18.351 17.4465 18.351 18.4261C18.351 19.3371 19.0894 20.0756 20.0005 20.0756Z" fill="white"/>
<path fill-rule="evenodd" clip-rule="evenodd" d="M21.6495 21.7252C21.6495 20.8142 20.9111 20.0757 20.0001 20.0757C19.0891 20.0757 18.3506 20.8142 18.3506 21.7252V21.7257C18.3506 22.6367 19.0891 23.3752 20.0001 23.3752C20.9111 23.3752 21.6495 22.6367 21.6495 21.7257V21.7252Z" fill="white"/>
<path d="M19.9995 0C18.8215 0 17.6507 0.156371 16.5197 0.464905C16.0802 0.58474 15.8212 1.03818 15.941 1.4776C16.0608 1.91711 16.5147 2.17624 16.9536 2.05624C17.9432 1.7863 18.968 1.64948 19.9995 1.64948C26.3662 1.64948 31.5459 6.82917 31.5459 13.1958C31.5459 19.1116 29.1869 21.4221 27.1057 23.4606C25.7503 24.7881 24.4621 26.0512 24.1806 28.0412H15.8184C15.537 26.0512 14.2488 24.7881 12.8933 23.4606C10.8122 21.4221 8.45319 19.1116 8.45319 13.1958C8.45319 10.469 9.42193 7.8224 11.181 5.74348C11.4752 5.39577 11.4319 4.87536 11.0841 4.58118C10.7365 4.28691 10.216 4.33029 9.9218 4.678C7.91109 7.05432 6.80371 10.0794 6.80371 13.1958C6.80371 19.8049 9.54028 22.4853 11.7392 24.6391C12.9911 25.8653 13.9413 26.7968 14.172 28.1901C13.1247 28.5549 12.3707 29.5515 12.3707 30.7217C12.3707 31.912 13.1507 32.9229 14.2264 33.2717V35.0517H14.0203C13.5648 35.0517 13.1955 35.4209 13.1955 35.8764C13.1955 36.3319 13.5648 36.7011 14.0203 36.7011H14.2264V37.5259C14.2264 38.8901 15.3363 40.0001 16.7006 40.0001H23.2985C24.6628 40.0001 25.7727 38.8901 25.7727 37.5259V36.7011H25.9789C26.4343 36.7011 26.8036 36.3319 26.8036 35.8764C26.8036 35.4209 26.4343 35.0517 25.9789 35.0517H25.7727V33.2717C26.8483 32.923 27.6284 31.912 27.6284 30.7217C27.6284 29.5516 26.8744 28.5549 25.8271 28.1901C26.0577 26.7968 27.0079 25.8653 28.2599 24.6391C30.4588 22.4854 33.1954 19.805 33.1954 13.1958C33.1954 5.91965 27.2758 0 19.9995 0ZM24.1232 37.5258C24.1232 37.9805 23.7533 38.3505 23.2985 38.3505H16.7006C16.2458 38.3505 15.8758 37.9805 15.8758 37.5258V36.701H24.1232V37.5258ZM15.8758 35.0517V33.4021H24.1232V35.0517H15.8758ZM24.948 31.7525H15.0511C14.4826 31.7525 14.0202 31.2901 14.0202 30.7216C14.0202 30.1531 14.4826 29.6907 15.0511 29.6907H24.948C25.5165 29.6907 25.9789 30.1532 25.9789 30.7216C25.9789 31.2901 25.5165 31.7525 24.948 31.7525Z" fill="black"/>
<path d="M3.50476 14.0206C3.96018 14.0206 4.3295 13.6513 4.3295 13.1958C4.3295 12.7403 3.96018 12.3711 3.50476 12.3711H1.60794C1.15252 12.3711 0.783203 12.7403 0.783203 13.1958C0.783203 13.6513 1.15252 14.0206 1.60794 14.0206H3.50476Z" fill="black"/>
<path d="M5.30244 20.729L2.01701 22.6259C1.62253 22.8537 1.48736 23.3581 1.71515 23.7525C1.86798 24.0171 2.14509 24.1651 2.4302 24.1651C2.57008 24.1651 2.71193 24.1294 2.84174 24.0544L6.12717 22.1575C6.52165 21.9298 6.65682 21.4254 6.42903 21.0309C6.20132 20.6365 5.69699 20.5013 5.30244 20.729Z" fill="black"/>
<path d="M37.9826 22.6259L34.6972 20.729C34.3027 20.5013 33.7982 20.6365 33.5706 21.0309C33.3428 21.4254 33.478 21.9298 33.8725 22.1575L37.1579 24.0544C37.2878 24.1294 37.4296 24.1651 37.5694 24.1651C37.8545 24.1651 38.1318 24.0171 38.2845 23.7525C38.5123 23.3582 38.3771 22.8537 37.9826 22.6259Z" fill="black"/>
<path d="M38.3915 12.3711H36.4947C36.0392 12.3711 35.6699 12.7403 35.6699 13.1958C35.6699 13.6513 36.0392 14.0206 36.4947 14.0206H38.3915C38.8469 14.0206 39.2162 13.6513 39.2162 13.1958C39.2162 12.7403 38.8469 12.3711 38.3915 12.3711Z" fill="black"/>
<path d="M34.2857 5.77319C34.4255 5.77319 34.5674 5.73748 34.6972 5.66251L37.9826 3.76562C38.3771 3.5379 38.5123 3.03349 38.2845 2.63902C38.0567 2.24463 37.5525 2.10946 37.1579 2.33717L33.8725 4.23407C33.478 4.46178 33.3428 4.96619 33.5706 5.36066C33.7234 5.62532 34.0006 5.77319 34.2857 5.77319Z" fill="black"/>
<path d="M6.12717 4.23416L2.84174 2.33726C2.44711 2.10938 1.94286 2.24464 1.71515 2.63911C1.48736 3.03359 1.62253 3.538 2.01701 3.76571L5.30244 5.66261C5.43233 5.73757 5.5741 5.77329 5.71398 5.77329C5.99901 5.77329 6.27629 5.62533 6.42903 5.36075C6.65682 4.96628 6.52165 4.46187 6.12717 4.23416Z" fill="black"/>
<path d="M22.6997 17.9243C23.0511 17.3962 23.7352 16.6883 24.358 16.0655C24.9366 15.4868 25.3908 14.8083 25.7082 14.0487C26.025 13.2903 26.1855 12.4921 26.1855 11.6761C26.1855 10.0241 25.5421 8.47079 24.3737 7.30239C23.2053 6.13398 21.652 5.4906 20 5.4906C18.348 5.4906 16.7947 6.13406 15.6263 7.30239C14.4579 8.47079 13.8145 10.0241 13.8145 11.6761C13.8145 13.0404 14.9244 14.1504 16.2887 14.1504C17.653 14.1504 18.7629 13.0404 18.7629 11.6761C18.7629 11.3455 18.8915 11.0348 19.1252 10.8013C19.3588 10.5677 19.6694 10.439 20 10.439C20.3305 10.439 20.6412 10.5677 20.8749 10.8013C21.1084 11.0348 21.2371 11.3455 21.2371 11.6761C21.2371 11.8441 21.2061 12.0035 21.1449 12.15C21.0825 12.2992 20.9864 12.4394 20.8591 12.5667C19.7346 13.6912 19.0747 14.4523 18.5817 15.1935C17.8614 16.276 17.5258 17.3033 17.5258 18.4261C17.5258 19.0593 17.7652 19.6375 18.1579 20.0756C17.7651 20.5138 17.5258 21.0922 17.5258 21.7257C17.5258 23.09 18.6357 24.2 20 24.2C21.3643 24.2 22.4742 23.09 22.4742 21.7257V21.7252C22.4742 21.0919 22.2348 20.5137 21.8421 20.0756C22.2348 19.6375 22.4742 19.0593 22.4742 18.4261C22.4743 18.3518 22.5135 18.2044 22.6997 17.9243ZM19.955 16.1073C20.3836 15.463 20.9835 14.7753 22.0256 13.733C22.3056 13.453 22.5215 13.1343 22.667 12.7858C22.8127 12.437 22.8866 12.0636 22.8866 11.6762C22.8866 10.905 22.5863 10.1801 22.0412 9.635C21.4962 9.08984 20.7713 8.78964 20 8.78964C19.2287 8.78964 18.5038 9.08984 17.9588 9.635C17.4137 10.1801 17.1134 10.905 17.1134 11.6762C17.1134 12.131 16.7434 12.501 16.2887 12.501C15.8339 12.501 15.4639 12.131 15.4639 11.6762C15.4639 10.4648 15.9358 9.32572 16.7927 8.4689C17.6495 7.61208 18.7885 7.14016 20 7.14016C21.2115 7.14016 22.3505 7.61208 23.2073 8.4689C24.0642 9.32572 24.5361 10.4648 24.5361 11.6762C24.5361 12.2728 24.4183 12.8571 24.1861 13.413C23.9521 13.9733 23.6174 14.4733 23.1917 14.8992C22.2145 15.8762 21.6742 16.4879 21.3263 17.0106C20.9842 17.525 20.8247 17.9748 20.8247 18.4261C20.8247 18.8809 20.4548 19.2509 20 19.2509C19.5452 19.2509 19.1753 18.8809 19.1753 18.4261C19.1753 17.6327 19.4158 16.9176 19.955 16.1073ZM20.8248 21.7257C20.8248 22.1805 20.4548 22.5505 20.0001 22.5505C19.5453 22.5505 19.1753 22.1805 19.1753 21.7252C19.1753 21.2704 19.5453 20.9004 20.0001 20.9004C20.4548 20.9004 20.8248 21.2704 20.8248 21.7252V21.7257Z" fill="black"/>
<path d="M13.3436 3.59064C13.799 3.59064 14.1684 3.2214 14.1684 2.7659C14.1684 2.3104 13.799 1.94116 13.3436 1.94116H13.343C12.8875 1.94116 12.5186 2.3104 12.5186 2.7659C12.5186 3.2214 12.8881 3.59064 13.3436 3.59064Z" fill="black"/>
</g>
<defs>
<clipPath id="clip0_259_378">
<rect width="40" height="40" fill="white"/>
</clipPath>
</defs>
</svg>
