<svg width="56" height="56" viewBox="0 0 56 56" fill="none" xmlns="http://www.w3.org/2000/svg">
<path fill-rule="evenodd" clip-rule="evenodd" d="M11.375 28.875C9.92513 28.875 8.75 30.0501 8.75 31.5C8.75 32.9499 9.92513 34.125 11.375 34.125H13.125C13.608 34.125 14 34.517 14 35C14 35.483 13.608 35.875 13.125 35.875H11.375C10.892 35.875 10.5 35.483 10.5 35C10.5 34.517 10.108 34.125 9.625 34.125C9.142 34.125 8.75 34.517 8.75 35C8.75 36.4499 9.92513 37.625 11.375 37.625V38.5C11.375 38.983 11.767 39.375 12.25 39.375C12.733 39.375 13.125 38.983 13.125 38.5V37.625C14.5749 37.625 15.75 36.4499 15.75 35C15.75 33.5501 14.5749 32.375 13.125 32.375H11.375C10.892 32.375 10.5 31.983 10.5 31.5C10.5 31.017 10.892 30.625 11.375 30.625H13.125C13.608 30.625 14 31.017 14 31.5C14 31.983 14.392 32.375 14.875 32.375C15.358 32.375 15.75 31.983 15.75 31.5C15.75 30.0501 14.5749 28.875 13.125 28.875V28C13.125 27.517 12.733 27.125 12.25 27.125C11.767 27.125 11.375 27.517 11.375 28V28.875Z" fill="#B51F24"/>
<path fill-rule="evenodd" clip-rule="evenodd" d="M11.375 28.875C9.92513 28.875 8.75 30.0501 8.75 31.5C8.75 32.9499 9.92513 34.125 11.375 34.125H13.125C13.608 34.125 14 34.517 14 35C14 35.483 13.608 35.875 13.125 35.875H11.375C10.892 35.875 10.5 35.483 10.5 35C10.5 34.517 10.108 34.125 9.625 34.125C9.142 34.125 8.75 34.517 8.75 35C8.75 36.4499 9.92513 37.625 11.375 37.625V38.5C11.375 38.983 11.767 39.375 12.25 39.375C12.733 39.375 13.125 38.983 13.125 38.5V37.625C14.5749 37.625 15.75 36.4499 15.75 35C15.75 33.5501 14.5749 32.375 13.125 32.375H11.375C10.892 32.375 10.5 31.983 10.5 31.5C10.5 31.017 10.892 30.625 11.375 30.625H13.125C13.608 30.625 14 31.017 14 31.5C14 31.983 14.392 32.375 14.875 32.375C15.358 32.375 15.75 31.983 15.75 31.5C15.75 30.0501 14.5749 28.875 13.125 28.875V28C13.125 27.517 12.733 27.125 12.25 27.125C11.767 27.125 11.375 27.517 11.375 28V28.875Z" fill="black" fill-opacity="0.2"/>
<path fill-rule="evenodd" clip-rule="evenodd" d="M43.7928 2.69897C38.4778 2.69897 34.163 7.01374 34.163 12.3288C34.163 17.6438 38.4778 21.9586 43.7928 21.9586C49.1079 21.9586 53.4227 17.6438 53.4227 12.3288C53.4227 7.01374 49.1079 2.69897 43.7928 2.69897ZM43.7928 4.44984C48.1411 4.44984 51.6718 7.98052 51.6718 12.3288C51.6718 16.677 48.1411 20.2077 43.7928 20.2077C39.4446 20.2077 35.9139 16.677 35.9139 12.3288C35.9139 7.98052 39.4446 4.44984 43.7928 4.44984Z" fill="#B51F24"/>
<path fill-rule="evenodd" clip-rule="evenodd" d="M43.7928 2.69897C38.4778 2.69897 34.163 7.01374 34.163 12.3288C34.163 17.6438 38.4778 21.9586 43.7928 21.9586C49.1079 21.9586 53.4227 17.6438 53.4227 12.3288C53.4227 7.01374 49.1079 2.69897 43.7928 2.69897ZM43.7928 4.44984C48.1411 4.44984 51.6718 7.98052 51.6718 12.3288C51.6718 16.677 48.1411 20.2077 43.7928 20.2077C39.4446 20.2077 35.9139 16.677 35.9139 12.3288C35.9139 7.98052 39.4446 4.44984 43.7928 4.44984Z" fill="black" fill-opacity="0.2"/>
<path fill-rule="evenodd" clip-rule="evenodd" d="M13.6331 20.0977C13.6985 19.8288 13.7705 19.5591 13.8486 19.2903C13.9267 19.0215 14.0105 18.7553 14.0994 18.4933C14.2551 18.0357 14.0105 17.5392 13.5529 17.3834C13.0962 17.2279 12.5985 17.4732 12.443 17.9299C12.3457 18.2177 12.254 18.5081 12.1686 18.8021C12.0832 19.0961 12.0049 19.3904 11.9328 19.6855C11.8193 20.1545 12.1079 20.6282 12.5769 20.7417C13.0467 20.8555 13.5193 20.5675 13.6331 20.0977Z" fill="#B51F24"/>
<path fill-rule="evenodd" clip-rule="evenodd" d="M13.6331 20.0977C13.6985 19.8288 13.7705 19.5591 13.8486 19.2903C13.9267 19.0215 14.0105 18.7553 14.0994 18.4933C14.2551 18.0357 14.0105 17.5392 13.5529 17.3834C13.0962 17.2279 12.5985 17.4732 12.443 17.9299C12.3457 18.2177 12.254 18.5081 12.1686 18.8021C12.0832 19.0961 12.0049 19.3904 11.9328 19.6855C11.8193 20.1545 12.1079 20.6282 12.5769 20.7417C13.0467 20.8555 13.5193 20.5675 13.6331 20.0977Z" fill="black" fill-opacity="0.2"/>
<path fill-rule="evenodd" clip-rule="evenodd" d="M15.3591 15.6155C15.4919 15.3728 15.6312 15.1309 15.7763 14.8915C15.9213 14.6521 16.0711 14.4167 16.2248 14.1866C16.4937 13.785 16.3859 13.2421 15.9843 12.9732C15.5834 12.7047 15.0393 12.8128 14.7709 13.2137C14.6024 13.4665 14.4386 13.7232 14.28 13.985C14.1214 14.2469 13.9696 14.5109 13.8236 14.7773C13.5925 15.2008 13.7487 15.7331 14.1722 15.9642C14.5965 16.1957 15.1276 16.0398 15.3591 15.6155Z" fill="#B51F24"/>
<path fill-rule="evenodd" clip-rule="evenodd" d="M15.3591 15.6155C15.4919 15.3728 15.6312 15.1309 15.7763 14.8915C15.9213 14.6521 16.0711 14.4167 16.2248 14.1866C16.4937 13.785 16.3859 13.2421 15.9843 12.9732C15.5834 12.7047 15.0393 12.8128 14.7709 13.2137C14.6024 13.4665 14.4386 13.7232 14.28 13.985C14.1214 14.2469 13.9696 14.5109 13.8236 14.7773C13.5925 15.2008 13.7487 15.7331 14.1722 15.9642C14.5965 16.1957 15.1276 16.0398 15.3591 15.6155Z" fill="black" fill-opacity="0.2"/>
<path fill-rule="evenodd" clip-rule="evenodd" d="M18.1755 11.8448C18.3667 11.6447 18.564 11.4471 18.7661 11.2533C18.9683 11.0596 19.1741 10.8708 19.3822 10.6883C19.746 10.3699 19.7825 9.81738 19.4641 9.45352C19.1462 9.09029 18.5925 9.05377 18.2292 9.37161C18.0009 9.57224 17.7763 9.7779 17.5551 9.98983C17.334 10.2018 17.119 10.4175 16.9089 10.6371C16.5759 10.9865 16.5889 11.5413 16.9383 11.8743C17.2884 12.2079 17.8419 12.1949 18.1755 11.8448Z" fill="#B51F24"/>
<path fill-rule="evenodd" clip-rule="evenodd" d="M18.1755 11.8448C18.3667 11.6447 18.564 11.4471 18.7661 11.2533C18.9683 11.0596 19.1741 10.8708 19.3822 10.6883C19.746 10.3699 19.7825 9.81738 19.4641 9.45352C19.1462 9.09029 18.5925 9.05377 18.2292 9.37161C18.0009 9.57224 17.7763 9.7779 17.5551 9.98983C17.334 10.2018 17.119 10.4175 16.9089 10.6371C16.5759 10.9865 16.5889 11.5413 16.9383 11.8743C17.2884 12.2079 17.8419 12.1949 18.1755 11.8448Z" fill="black" fill-opacity="0.2"/>
<path fill-rule="evenodd" clip-rule="evenodd" d="M22.0827 8.82363C22.319 8.67961 22.5606 8.53968 22.8059 8.4047C23.0512 8.26972 23.2987 8.14053 23.5469 8.01797C23.9806 7.80429 24.1585 7.27997 23.9448 6.84625C23.7316 6.4133 23.206 6.23505 22.7731 6.44831C22.5008 6.58318 22.2306 6.72384 21.9623 6.87147C21.694 7.01911 21.4306 7.17203 21.1709 7.3299C20.759 7.58148 20.6283 8.12079 20.8799 8.53265C21.1319 8.94528 21.67 9.07564 22.0827 8.82363Z" fill="#B51F24"/>
<path fill-rule="evenodd" clip-rule="evenodd" d="M22.0827 8.82363C22.319 8.67961 22.5606 8.53968 22.8059 8.4047C23.0512 8.26972 23.2987 8.14053 23.5469 8.01797C23.9806 7.80429 24.1585 7.27997 23.9448 6.84625C23.7316 6.4133 23.206 6.23505 22.7731 6.44831C22.5008 6.58318 22.2306 6.72384 21.9623 6.87147C21.694 7.01911 21.4306 7.17203 21.1709 7.3299C20.759 7.58148 20.6283 8.12079 20.8799 8.53265C21.1319 8.94528 21.67 9.07564 22.0827 8.82363Z" fill="black" fill-opacity="0.2"/>
<path fill-rule="evenodd" clip-rule="evenodd" d="M26.2883 6.77315C26.5538 6.69545 26.8234 6.62307 27.0953 6.55643C27.3672 6.48979 27.6396 6.4293 27.911 6.37539C28.3852 6.28168 28.6931 5.82164 28.5994 5.34744C28.5059 4.87409 28.0448 4.56559 27.5714 4.6591C27.2735 4.71862 26.9761 4.78429 26.6788 4.85718C26.3814 4.93007 26.0874 5.00933 25.7957 5.09434C25.3328 5.23033 25.0666 5.71709 25.2026 6.18002C25.3388 6.64381 25.8245 6.90934 26.2883 6.77315Z" fill="#B51F24"/>
<path fill-rule="evenodd" clip-rule="evenodd" d="M26.2883 6.77315C26.5538 6.69545 26.8234 6.62307 27.0953 6.55643C27.3672 6.48979 27.6396 6.4293 27.911 6.37539C28.3852 6.28168 28.6931 5.82164 28.5994 5.34744C28.5059 4.87409 28.0448 4.56559 27.5714 4.6591C27.2735 4.71862 26.9761 4.78429 26.6788 4.85718C26.3814 4.93007 26.0874 5.00933 25.7957 5.09434C25.3328 5.23033 25.0666 5.71709 25.2026 6.18002C25.3388 6.64381 25.8245 6.90934 26.2883 6.77315Z" fill="black" fill-opacity="0.2"/>
<path fill-rule="evenodd" clip-rule="evenodd" d="M31.0364 6.19807C31.3131 6.19163 31.5923 6.19137 31.8722 6.19725C32.1522 6.20313 32.4311 6.21511 32.7073 6.23316C33.1897 6.26517 33.6061 5.90021 33.6381 5.41778C33.6701 4.93622 33.3043 4.51894 32.8227 4.48695C32.5195 4.46745 32.2152 4.45406 31.909 4.44763C31.6028 4.4412 31.2982 4.4418 30.9944 4.44855C30.5119 4.4603 30.1289 4.86185 30.1407 5.34433C30.1524 5.82768 30.5531 6.2098 31.0364 6.19807Z" fill="#B51F24"/>
<path fill-rule="evenodd" clip-rule="evenodd" d="M31.0364 6.19807C31.3131 6.19163 31.5923 6.19137 31.8722 6.19725C32.1522 6.20313 32.4311 6.21511 32.7073 6.23316C33.1897 6.26517 33.6061 5.90021 33.6381 5.41778C33.6701 4.93622 33.3043 4.51894 32.8227 4.48695C32.5195 4.46745 32.2152 4.45406 31.909 4.44763C31.6028 4.4412 31.2982 4.4418 30.9944 4.44855C30.5119 4.4603 30.1289 4.86185 30.1407 5.34433C30.1524 5.82768 30.5531 6.2098 31.0364 6.19807Z" fill="black" fill-opacity="0.2"/>
<path fill-rule="evenodd" clip-rule="evenodd" d="M49.9469 22.3654C49.9788 22.6405 50.0047 22.9186 50.0246 23.198C50.0445 23.4775 50.0582 23.7565 50.0656 24.0333C50.0781 24.5169 50.4799 24.8982 50.9635 24.8857C51.4462 24.8733 51.8283 24.4705 51.8159 23.9878C51.8075 23.6838 51.7928 23.3794 51.7711 23.0738C51.7494 22.7682 51.7208 22.4648 51.6861 22.1627C51.63 21.6831 51.1948 21.3384 50.7152 21.3945C50.2347 21.4506 49.8908 21.8849 49.9469 22.3654Z" fill="#B51F24"/>
<path fill-rule="evenodd" clip-rule="evenodd" d="M49.9469 22.3654C49.9788 22.6405 50.0047 22.9186 50.0246 23.198C50.0445 23.4775 50.0582 23.7565 50.0656 24.0333C50.0781 24.5169 50.4799 24.8982 50.9635 24.8857C51.4462 24.8733 51.8283 24.4705 51.8159 23.9878C51.8075 23.6838 51.7928 23.3794 51.7711 23.0738C51.7494 22.7682 51.7208 22.4648 51.6861 22.1627C51.63 21.6831 51.1948 21.3384 50.7152 21.3945C50.2347 21.4506 49.8908 21.8849 49.9469 22.3654Z" fill="black" fill-opacity="0.2"/>
<path fill-rule="evenodd" clip-rule="evenodd" d="M49.7375 27.2019C49.697 27.4757 49.65 27.7509 49.5968 28.0258C49.5436 28.3007 49.4846 28.5736 49.4201 28.8427C49.3068 29.3128 49.596 29.7849 50.0661 29.8981C50.5353 30.0112 51.0085 29.7213 51.1215 29.2521C51.1921 28.9565 51.2568 28.6589 51.315 28.3582C51.3731 28.0575 51.4241 27.7573 51.4689 27.4567C51.539 26.9792 51.2081 26.5337 50.7306 26.4636C50.2522 26.3933 49.8078 26.7235 49.7375 27.2019Z" fill="#B51F24"/>
<path fill-rule="evenodd" clip-rule="evenodd" d="M49.7375 27.2019C49.697 27.4757 49.65 27.7509 49.5968 28.0258C49.5436 28.3007 49.4846 28.5736 49.4201 28.8427C49.3068 29.3128 49.596 29.7849 50.0661 29.8981C50.5353 30.0112 51.0085 29.7213 51.1215 29.2521C51.1921 28.9565 51.2568 28.6589 51.315 28.3582C51.3731 28.0575 51.4241 27.7573 51.4689 27.4567C51.539 26.9792 51.2081 26.5337 50.7306 26.4636C50.2522 26.3933 49.8078 26.7235 49.7375 27.2019Z" fill="black" fill-opacity="0.2"/>
<path fill-rule="evenodd" clip-rule="evenodd" d="M48.2768 31.8293C48.1667 32.0832 48.0499 32.3368 47.9273 32.5886C47.8046 32.8403 47.6769 33.0885 47.5448 33.3317C47.3135 33.7564 47.4704 34.2874 47.8951 34.5186C48.3189 34.7494 48.8511 34.5921 49.0819 34.1683C49.2267 33.9011 49.3664 33.6304 49.5005 33.3551C49.6347 33.0797 49.7617 32.8029 49.8829 32.5242C50.0744 32.0812 49.8703 31.5652 49.4273 31.3737C48.9835 31.1818 48.4687 31.3855 48.2768 31.8293Z" fill="#B51F24"/>
<path fill-rule="evenodd" clip-rule="evenodd" d="M48.2768 31.8293C48.1667 32.0832 48.0499 32.3368 47.9273 32.5886C47.8046 32.8403 47.6769 33.0885 47.5448 33.3317C47.3135 33.7564 47.4704 34.2874 47.8951 34.5186C48.3189 34.7494 48.8511 34.5921 49.0819 34.1683C49.2267 33.9011 49.3664 33.6304 49.5005 33.3551C49.6347 33.0797 49.7617 32.8029 49.8829 32.5242C50.0744 32.0812 49.8703 31.5652 49.4273 31.3737C48.9835 31.1818 48.4687 31.3855 48.2768 31.8293Z" fill="black" fill-opacity="0.2"/>
<path fill-rule="evenodd" clip-rule="evenodd" d="M45.9521 35.7562C45.7803 35.9729 45.602 36.1877 45.4186 36.3991C45.2352 36.6105 45.0478 36.8172 44.8574 37.018C44.5246 37.3683 44.539 37.9215 44.8893 38.2544C45.239 38.5867 45.7935 38.5722 46.1258 38.2225C46.3346 38.0019 46.5393 37.7766 46.7399 37.5453C46.9405 37.3141 47.1347 37.0796 47.3236 36.8418C47.6229 36.4635 47.559 35.9125 47.1807 35.6132C46.8017 35.3134 46.252 35.3772 45.9521 35.7562Z" fill="#B51F24"/>
<path fill-rule="evenodd" clip-rule="evenodd" d="M45.9521 35.7562C45.7803 35.9729 45.602 36.1877 45.4186 36.3991C45.2352 36.6105 45.0478 36.8172 44.8574 37.018C44.5246 37.3683 44.539 37.9215 44.8893 38.2544C45.239 38.5867 45.7935 38.5722 46.1258 38.2225C46.3346 38.0019 46.5393 37.7766 46.7399 37.5453C46.9405 37.3141 47.1347 37.0796 47.3236 36.8418C47.6229 36.4635 47.559 35.9125 47.1807 35.6132C46.8017 35.3134 46.252 35.3772 45.9521 35.7562Z" fill="black" fill-opacity="0.2"/>
<path fill-rule="evenodd" clip-rule="evenodd" d="M42.4261 39.36C42.2037 39.525 41.9757 39.6864 41.7436 39.8432C41.5115 40 41.2767 40.1512 41.0406 40.2959C40.6279 40.5482 40.4984 41.0868 40.7508 41.4995C41.0026 41.9114 41.5424 42.0411 41.9543 41.7893C42.2134 41.6301 42.4697 41.4654 42.7236 41.2939C42.9775 41.1224 43.226 40.9461 43.4704 40.7652C43.8578 40.4771 43.9389 39.9279 43.6508 39.5404C43.3622 39.1523 42.8142 39.0714 42.4261 39.36Z" fill="#B51F24"/>
<path fill-rule="evenodd" clip-rule="evenodd" d="M42.4261 39.36C42.2037 39.525 41.9757 39.6864 41.7436 39.8432C41.5115 40 41.2767 40.1512 41.0406 40.2959C40.6279 40.5482 40.4984 41.0868 40.7508 41.4995C41.0026 41.9114 41.5424 42.0411 41.9543 41.7893C42.2134 41.6301 42.4697 41.4654 42.7236 41.2939C42.9775 41.1224 43.226 40.9461 43.4704 40.7652C43.8578 40.4771 43.9389 39.9279 43.6508 39.5404C43.3622 39.1523 42.8142 39.0714 42.4261 39.36Z" fill="black" fill-opacity="0.2"/>
<path fill-rule="evenodd" clip-rule="evenodd" d="M39.3777 12.872L41.8522 15.3465C42.1936 15.688 42.7479 15.688 43.0894 15.3465L48.0384 10.3975C48.3799 10.0561 48.3799 9.50177 48.0384 9.16029C47.6969 8.81881 47.1426 8.81881 46.8012 9.16029L42.4708 13.4907L40.6149 11.6348C40.2734 11.2933 39.7191 11.2933 39.3777 11.6348C39.0362 11.9763 39.0362 12.5306 39.3777 12.872Z" fill="#B51F24"/>
<path fill-rule="evenodd" clip-rule="evenodd" d="M39.3777 12.872L41.8522 15.3465C42.1936 15.688 42.7479 15.688 43.0894 15.3465L48.0384 10.3975C48.3799 10.0561 48.3799 9.50177 48.0384 9.16029C47.6969 8.81881 47.1426 8.81881 46.8012 9.16029L42.4708 13.4907L40.6149 11.6348C40.2734 11.2933 39.7191 11.2933 39.3777 11.6348C39.0362 11.9763 39.0362 12.5306 39.3777 12.872Z" fill="black" fill-opacity="0.2"/>
<path fill-rule="evenodd" clip-rule="evenodd" d="M39.3777 12.872L41.8522 15.3465C42.1936 15.688 42.7479 15.688 43.0894 15.3465L48.0384 10.3975C48.3799 10.0561 48.3799 9.50177 48.0384 9.16029C47.6969 8.81881 47.1426 8.81881 46.8012 9.16029L42.4708 13.4907L40.6149 11.6348C40.2734 11.2933 39.7191 11.2933 39.3777 11.6348C39.0362 11.9763 39.0362 12.5306 39.3777 12.872Z" fill="#B51F24"/>
<path fill-rule="evenodd" clip-rule="evenodd" d="M39.3777 12.872L41.8522 15.3465C42.1936 15.688 42.7479 15.688 43.0894 15.3465L48.0384 10.3975C48.3799 10.0561 48.3799 9.50177 48.0384 9.16029C47.6969 8.81881 47.1426 8.81881 46.8012 9.16029L42.4708 13.4907L40.6149 11.6348C40.2734 11.2933 39.7191 11.2933 39.3777 11.6348C39.0362 11.9763 39.0362 12.5306 39.3777 12.872Z" fill="black" fill-opacity="0.2"/>
<path fill-rule="evenodd" clip-rule="evenodd" d="M34.412 9.91025C35.4585 5.72688 39.2446 2.625 43.75 2.625C49.0621 2.625 53.375 6.93787 53.375 12.25C53.375 16.7554 50.2731 20.5415 46.0897 21.588C46.277 22.5304 46.375 23.5034 46.375 24.5C46.375 29.3528 44.0466 33.6656 40.4469 36.3816C40.446 36.3825 40.4442 36.3834 40.4434 36.3843C39.7836 36.876 39.3943 37.6504 39.3943 38.4738V38.5026C39.375 39.0688 39.375 39.6909 39.375 40.25C39.375 40.8975 39.1361 41.5205 38.7065 42C39.1221 42.4646 39.375 43.078 39.375 43.75C39.375 44.422 39.1221 45.0354 38.7065 45.5C39.1221 45.9646 39.375 46.578 39.375 47.25C39.375 48.6999 38.1999 49.875 36.75 49.875H35.875V50.75C35.875 52.1999 34.6999 53.375 33.25 53.375H29.75C28.3001 53.375 27.125 52.1999 27.125 50.75V49.875H26.25C24.8001 49.875 23.625 48.6999 23.625 47.25C23.625 46.578 23.8779 45.9646 24.2935 45.5C23.8779 45.0354 23.625 44.422 23.625 43.75C23.625 43.078 23.8779 42.4646 24.2935 42C23.8639 41.5205 23.625 40.8975 23.625 40.25V38.4738C23.625 37.6443 23.233 36.8646 22.5689 36.3685C22.568 36.3685 22.568 36.3685 22.5671 36.3685C22.2311 36.1165 21.9056 35.8514 21.5924 35.5723C21.0271 37.8516 19.6481 39.8107 17.7826 41.125H19.25C19.9465 41.125 20.6141 41.4015 21.1059 41.8941C21.5985 42.3859 21.875 43.0535 21.875 43.75V45.5C21.875 46.1475 21.6361 46.7705 21.2065 47.25C21.6361 47.7295 21.875 48.3525 21.875 49V50.75C21.875 51.4465 21.5985 52.1141 21.1059 52.6059C20.6141 53.0985 19.9465 53.375 19.25 53.375C15.897 53.375 8.603 53.375 5.25 53.375C4.5535 53.375 3.88587 53.0985 3.39412 52.6059C2.9015 52.1141 2.625 51.4465 2.625 50.75V49C2.625 48.3525 2.86388 47.7295 3.29351 47.25C2.86388 46.7705 2.625 46.1475 2.625 45.5V43.75C2.625 43.0535 2.9015 42.3859 3.39412 41.8941C3.88587 41.4015 4.5535 41.125 5.25 41.125H6.71738C4.24288 39.3829 2.625 36.5041 2.625 33.25C2.625 27.9379 6.93787 23.625 12.25 23.625C13.8259 23.625 15.3134 24.0047 16.6259 24.6767C16.625 24.6181 16.625 24.5586 16.625 24.5C16.625 16.2899 23.2899 9.625 31.5 9.625C32.4966 9.625 33.4696 9.723 34.412 9.91025ZM34.125 49.875V50.75C34.125 51.233 33.733 51.625 33.25 51.625H29.75C29.267 51.625 28.875 51.233 28.875 50.75V49.875H34.125ZM5.25 48.125H19.25C19.4819 48.125 19.705 48.2169 19.8686 48.3814C20.0331 48.545 20.125 48.7681 20.125 49V50.75C20.125 50.9819 20.0331 51.205 19.8686 51.3686C19.705 51.5331 19.4819 51.625 19.25 51.625H5.25C5.01813 51.625 4.795 51.5331 4.63137 51.3686C4.46687 51.205 4.375 50.9819 4.375 50.75V49C4.375 48.7681 4.46687 48.545 4.63137 48.3814C4.795 48.2169 5.01813 48.125 5.25 48.125ZM37.625 47.25C37.625 46.767 37.233 46.375 36.75 46.375H26.25C25.767 46.375 25.375 46.767 25.375 47.25C25.375 47.733 25.767 48.125 26.25 48.125H36.75C37.233 48.125 37.625 47.733 37.625 47.25ZM5.25 42.875H19.25C19.4819 42.875 19.705 42.9669 19.8686 43.1314C20.0331 43.295 20.125 43.5181 20.125 43.75V45.5C20.125 45.7319 20.0331 45.955 19.8686 46.1186C19.705 46.2831 19.4819 46.375 19.25 46.375H5.25C5.01813 46.375 4.795 46.2831 4.63137 46.1186C4.46687 45.955 4.375 45.7319 4.375 45.5V43.75C4.375 43.5181 4.46687 43.295 4.63137 43.1314C4.795 42.9669 5.01813 42.875 5.25 42.875ZM36.75 42.875H26.25C25.767 42.875 25.375 43.267 25.375 43.75C25.375 44.233 25.767 44.625 26.25 44.625H36.75C37.233 44.625 37.625 44.233 37.625 43.75C37.625 43.267 37.233 42.875 36.75 42.875ZM34.1443 11.6419C33.2894 11.4669 32.4056 11.375 31.5 11.375C24.2559 11.375 18.375 17.2559 18.375 24.5C18.375 24.969 18.3995 25.4319 18.4476 25.8877C20.5432 27.6544 21.875 30.2978 21.875 33.25C21.875 33.3016 21.875 33.3532 21.8741 33.404C22.4052 33.9745 22.988 34.4977 23.6145 34.9659C24.7223 35.791 25.375 37.0913 25.375 38.4738V40.25C25.375 40.4819 25.4669 40.705 25.6314 40.8686C25.795 41.0331 26.0181 41.125 26.25 41.125H28.875V27.125H28C26.551 27.125 25.375 25.949 25.375 24.5C25.375 23.051 26.551 21.875 28 21.875C29.449 21.875 30.625 23.051 30.625 24.5V25.375H32.375V24.5C32.375 23.051 33.551 21.875 35 21.875C36.449 21.875 37.625 23.051 37.625 24.5C37.625 25.9455 36.4534 27.1206 35.0087 27.125H34.125V41.125H36.75C36.9819 41.125 37.205 41.0331 37.3686 40.8686C37.5331 40.705 37.625 40.4819 37.625 40.25C37.625 39.6769 37.625 39.039 37.6443 38.4641C37.6478 37.0921 38.297 35.8015 39.3934 34.9842C42.5696 32.5876 44.625 28.7822 44.625 24.5C44.625 23.5944 44.5331 22.7106 44.3581 21.8557C44.1569 21.8689 43.9539 21.875 43.75 21.875C38.4379 21.875 34.125 17.5621 34.125 12.25C34.125 12.0461 34.1311 11.8431 34.1443 11.6419ZM12.25 25.375C16.5961 25.375 20.125 28.9039 20.125 33.25C20.125 37.5961 16.5961 41.125 12.25 41.125C7.90387 41.125 4.375 37.5961 4.375 33.25C4.375 28.9039 7.90387 25.375 12.25 25.375ZM32.375 41.125V27.125H30.625V41.125H32.375ZM28 23.625C28.483 23.625 28.875 24.017 28.875 24.5C28.875 24.983 28.483 25.375 28 25.375C27.517 25.375 27.125 24.983 27.125 24.5C27.125 24.017 27.517 23.625 28 23.625ZM35 23.625C35.483 23.625 35.875 24.017 35.875 24.5C35.875 24.983 35.483 25.375 35 25.375C34.517 25.375 34.125 24.983 34.125 24.5C34.125 24.017 34.517 23.625 35 23.625ZM43.75 4.375C48.0961 4.375 51.625 7.90387 51.625 12.25C51.625 16.5961 48.0961 20.125 43.75 20.125C39.4039 20.125 35.875 16.5961 35.875 12.25C35.875 7.90387 39.4039 4.375 43.75 4.375Z" fill="#B51F24"/>
<path fill-rule="evenodd" clip-rule="evenodd" d="M34.412 9.91025C35.4585 5.72688 39.2446 2.625 43.75 2.625C49.0621 2.625 53.375 6.93787 53.375 12.25C53.375 16.7554 50.2731 20.5415 46.0897 21.588C46.277 22.5304 46.375 23.5034 46.375 24.5C46.375 29.3528 44.0466 33.6656 40.4469 36.3816C40.446 36.3825 40.4442 36.3834 40.4434 36.3843C39.7836 36.876 39.3943 37.6504 39.3943 38.4738V38.5026C39.375 39.0688 39.375 39.6909 39.375 40.25C39.375 40.8975 39.1361 41.5205 38.7065 42C39.1221 42.4646 39.375 43.078 39.375 43.75C39.375 44.422 39.1221 45.0354 38.7065 45.5C39.1221 45.9646 39.375 46.578 39.375 47.25C39.375 48.6999 38.1999 49.875 36.75 49.875H35.875V50.75C35.875 52.1999 34.6999 53.375 33.25 53.375H29.75C28.3001 53.375 27.125 52.1999 27.125 50.75V49.875H26.25C24.8001 49.875 23.625 48.6999 23.625 47.25C23.625 46.578 23.8779 45.9646 24.2935 45.5C23.8779 45.0354 23.625 44.422 23.625 43.75C23.625 43.078 23.8779 42.4646 24.2935 42C23.8639 41.5205 23.625 40.8975 23.625 40.25V38.4738C23.625 37.6443 23.233 36.8646 22.5689 36.3685C22.568 36.3685 22.568 36.3685 22.5671 36.3685C22.2311 36.1165 21.9056 35.8514 21.5924 35.5723C21.0271 37.8516 19.6481 39.8107 17.7826 41.125H19.25C19.9465 41.125 20.6141 41.4015 21.1059 41.8941C21.5985 42.3859 21.875 43.0535 21.875 43.75V45.5C21.875 46.1475 21.6361 46.7705 21.2065 47.25C21.6361 47.7295 21.875 48.3525 21.875 49V50.75C21.875 51.4465 21.5985 52.1141 21.1059 52.6059C20.6141 53.0985 19.9465 53.375 19.25 53.375C15.897 53.375 8.603 53.375 5.25 53.375C4.5535 53.375 3.88587 53.0985 3.39412 52.6059C2.9015 52.1141 2.625 51.4465 2.625 50.75V49C2.625 48.3525 2.86388 47.7295 3.29351 47.25C2.86388 46.7705 2.625 46.1475 2.625 45.5V43.75C2.625 43.0535 2.9015 42.3859 3.39412 41.8941C3.88587 41.4015 4.5535 41.125 5.25 41.125H6.71738C4.24288 39.3829 2.625 36.5041 2.625 33.25C2.625 27.9379 6.93787 23.625 12.25 23.625C13.8259 23.625 15.3134 24.0047 16.6259 24.6767C16.625 24.6181 16.625 24.5586 16.625 24.5C16.625 16.2899 23.2899 9.625 31.5 9.625C32.4966 9.625 33.4696 9.723 34.412 9.91025ZM34.125 49.875V50.75C34.125 51.233 33.733 51.625 33.25 51.625H29.75C29.267 51.625 28.875 51.233 28.875 50.75V49.875H34.125ZM5.25 48.125H19.25C19.4819 48.125 19.705 48.2169 19.8686 48.3814C20.0331 48.545 20.125 48.7681 20.125 49V50.75C20.125 50.9819 20.0331 51.205 19.8686 51.3686C19.705 51.5331 19.4819 51.625 19.25 51.625H5.25C5.01813 51.625 4.795 51.5331 4.63137 51.3686C4.46687 51.205 4.375 50.9819 4.375 50.75V49C4.375 48.7681 4.46687 48.545 4.63137 48.3814C4.795 48.2169 5.01813 48.125 5.25 48.125ZM37.625 47.25C37.625 46.767 37.233 46.375 36.75 46.375H26.25C25.767 46.375 25.375 46.767 25.375 47.25C25.375 47.733 25.767 48.125 26.25 48.125H36.75C37.233 48.125 37.625 47.733 37.625 47.25ZM5.25 42.875H19.25C19.4819 42.875 19.705 42.9669 19.8686 43.1314C20.0331 43.295 20.125 43.5181 20.125 43.75V45.5C20.125 45.7319 20.0331 45.955 19.8686 46.1186C19.705 46.2831 19.4819 46.375 19.25 46.375H5.25C5.01813 46.375 4.795 46.2831 4.63137 46.1186C4.46687 45.955 4.375 45.7319 4.375 45.5V43.75C4.375 43.5181 4.46687 43.295 4.63137 43.1314C4.795 42.9669 5.01813 42.875 5.25 42.875ZM36.75 42.875H26.25C25.767 42.875 25.375 43.267 25.375 43.75C25.375 44.233 25.767 44.625 26.25 44.625H36.75C37.233 44.625 37.625 44.233 37.625 43.75C37.625 43.267 37.233 42.875 36.75 42.875ZM34.1443 11.6419C33.2894 11.4669 32.4056 11.375 31.5 11.375C24.2559 11.375 18.375 17.2559 18.375 24.5C18.375 24.969 18.3995 25.4319 18.4476 25.8877C20.5432 27.6544 21.875 30.2978 21.875 33.25C21.875 33.3016 21.875 33.3532 21.8741 33.404C22.4052 33.9745 22.988 34.4977 23.6145 34.9659C24.7223 35.791 25.375 37.0913 25.375 38.4738V40.25C25.375 40.4819 25.4669 40.705 25.6314 40.8686C25.795 41.0331 26.0181 41.125 26.25 41.125H28.875V27.125H28C26.551 27.125 25.375 25.949 25.375 24.5C25.375 23.051 26.551 21.875 28 21.875C29.449 21.875 30.625 23.051 30.625 24.5V25.375H32.375V24.5C32.375 23.051 33.551 21.875 35 21.875C36.449 21.875 37.625 23.051 37.625 24.5C37.625 25.9455 36.4534 27.1206 35.0087 27.125H34.125V41.125H36.75C36.9819 41.125 37.205 41.0331 37.3686 40.8686C37.5331 40.705 37.625 40.4819 37.625 40.25C37.625 39.6769 37.625 39.039 37.6443 38.4641C37.6478 37.0921 38.297 35.8015 39.3934 34.9842C42.5696 32.5876 44.625 28.7822 44.625 24.5C44.625 23.5944 44.5331 22.7106 44.3581 21.8557C44.1569 21.8689 43.9539 21.875 43.75 21.875C38.4379 21.875 34.125 17.5621 34.125 12.25C34.125 12.0461 34.1311 11.8431 34.1443 11.6419ZM12.25 25.375C16.5961 25.375 20.125 28.9039 20.125 33.25C20.125 37.5961 16.5961 41.125 12.25 41.125C7.90387 41.125 4.375 37.5961 4.375 33.25C4.375 28.9039 7.90387 25.375 12.25 25.375ZM32.375 41.125V27.125H30.625V41.125H32.375ZM28 23.625C28.483 23.625 28.875 24.017 28.875 24.5C28.875 24.983 28.483 25.375 28 25.375C27.517 25.375 27.125 24.983 27.125 24.5C27.125 24.017 27.517 23.625 28 23.625ZM35 23.625C35.483 23.625 35.875 24.017 35.875 24.5C35.875 24.983 35.483 25.375 35 25.375C34.517 25.375 34.125 24.983 34.125 24.5C34.125 24.017 34.517 23.625 35 23.625ZM43.75 4.375C48.0961 4.375 51.625 7.90387 51.625 12.25C51.625 16.5961 48.0961 20.125 43.75 20.125C39.4039 20.125 35.875 16.5961 35.875 12.25C35.875 7.90387 39.4039 4.375 43.75 4.375Z" fill="black" fill-opacity="0.2"/>
</svg>
