<svg width="56" height="56" viewBox="0 0 56 56" fill="none" xmlns="http://www.w3.org/2000/svg">
<path d="M48.4539 7.21943H40.0311V6.01609C40.0311 3.66398 38.1179 1.75024 35.7658 1.75024H20.2347C17.8826 1.75024 15.9689 3.66398 15.9689 6.01609V7.21943H7.5472C4.9537 7.21943 2.84396 9.32873 2.84396 11.9222V38.6096C2.84396 41.2037 4.9537 43.3129 7.5472 43.3129H24.0429L21.8553 47.6882H18.1566C16.347 47.6882 14.8751 49.16 14.8751 50.9698C14.875 52.7782 16.347 54.25 18.1566 54.25H37.8445C39.653 54.25 41.1249 52.7782 41.1249 50.9697C41.1249 49.1599 39.653 47.6881 37.8445 47.6881H34.1447L31.957 43.3127H48.4539C51.0468 43.3127 53.156 41.2036 53.156 38.6095V11.9221C53.156 9.32873 51.0468 7.21943 48.4539 7.21943ZM18.1566 6.01609C18.1566 4.87049 19.0891 3.93796 20.2347 3.93796H35.7658C36.912 3.93796 37.8445 4.87049 37.8445 6.01609V29.094H18.1566V6.01609ZM7.5472 9.4066H15.9689V29.094H14.875C14.2715 29.094 13.7812 29.5842 13.7812 30.1879C13.7812 30.7914 14.2715 31.2816 14.875 31.2816H41.1249C41.7295 31.2816 42.2187 30.7914 42.2187 30.1879C42.2187 29.5842 41.7295 29.094 41.1249 29.094H40.0311V9.4066H48.4539C49.8408 9.4066 50.9695 10.5352 50.9695 11.9222V35.657H5.03157V11.9221C5.03157 10.5352 6.16032 9.4066 7.5472 9.4066ZM38.9373 50.9697C38.9373 51.5721 38.4471 52.0623 37.8445 52.0623H18.1566C17.5529 52.0623 17.0627 51.5721 17.0627 50.9697C17.0627 50.366 17.5529 49.8758 18.1566 49.8758H37.8445C38.4471 49.8758 38.9373 50.366 38.9373 50.9697ZM31.6987 47.6881H24.3012L26.4888 43.3127H29.5121L31.6987 47.6881ZM48.4539 41.125C46.6703 41.125 9.33723 41.125 7.54731 41.125C6.16043 41.125 5.03168 39.9964 5.03168 38.6095V37.8447H50.9695V38.6095C50.9695 39.9964 49.8408 41.125 48.4539 41.125Z" fill="#B51F24"/>
<path d="M48.4539 7.21943H40.0311V6.01609C40.0311 3.66398 38.1179 1.75024 35.7658 1.75024H20.2347C17.8826 1.75024 15.9689 3.66398 15.9689 6.01609V7.21943H7.5472C4.9537 7.21943 2.84396 9.32873 2.84396 11.9222V38.6096C2.84396 41.2037 4.9537 43.3129 7.5472 43.3129H24.0429L21.8553 47.6882H18.1566C16.347 47.6882 14.8751 49.16 14.8751 50.9698C14.875 52.7782 16.347 54.25 18.1566 54.25H37.8445C39.653 54.25 41.1249 52.7782 41.1249 50.9697C41.1249 49.1599 39.653 47.6881 37.8445 47.6881H34.1447L31.957 43.3127H48.4539C51.0468 43.3127 53.156 41.2036 53.156 38.6095V11.9221C53.156 9.32873 51.0468 7.21943 48.4539 7.21943ZM18.1566 6.01609C18.1566 4.87049 19.0891 3.93796 20.2347 3.93796H35.7658C36.912 3.93796 37.8445 4.87049 37.8445 6.01609V29.094H18.1566V6.01609ZM7.5472 9.4066H15.9689V29.094H14.875C14.2715 29.094 13.7812 29.5842 13.7812 30.1879C13.7812 30.7914 14.2715 31.2816 14.875 31.2816H41.1249C41.7295 31.2816 42.2187 30.7914 42.2187 30.1879C42.2187 29.5842 41.7295 29.094 41.1249 29.094H40.0311V9.4066H48.4539C49.8408 9.4066 50.9695 10.5352 50.9695 11.9222V35.657H5.03157V11.9221C5.03157 10.5352 6.16032 9.4066 7.5472 9.4066ZM38.9373 50.9697C38.9373 51.5721 38.4471 52.0623 37.8445 52.0623H18.1566C17.5529 52.0623 17.0627 51.5721 17.0627 50.9697C17.0627 50.366 17.5529 49.8758 18.1566 49.8758H37.8445C38.4471 49.8758 38.9373 50.366 38.9373 50.9697ZM31.6987 47.6881H24.3012L26.4888 43.3127H29.5121L31.6987 47.6881ZM48.4539 41.125C46.6703 41.125 9.33723 41.125 7.54731 41.125C6.16043 41.125 5.03168 39.9964 5.03168 38.6095V37.8447H50.9695V38.6095C50.9695 39.9964 49.8408 41.125 48.4539 41.125Z" fill="black" fill-opacity="0.2"/>
<path d="M7.2193 15.969H11.5935V18.1566H7.2193V15.969Z" fill="#B51F24"/>
<path d="M7.2193 15.969H11.5935V18.1566H7.2193V15.969Z" fill="black" fill-opacity="0.2"/>
<path d="M7.2193 19.2505H11.5935V21.4381H7.2193V19.2505Z" fill="#B51F24"/>
<path d="M7.2193 19.2505H11.5935V21.4381H7.2193V19.2505Z" fill="black" fill-opacity="0.2"/>
<path d="M7.2193 22.5315H13.7813V24.7192H7.2193V22.5315Z" fill="#B51F24"/>
<path d="M7.2193 22.5315H13.7813V24.7192H7.2193V22.5315Z" fill="black" fill-opacity="0.2"/>
<path d="M20.3442 5.03174H22.5314V7.21935H20.3442V5.03174Z" fill="#B51F24"/>
<path d="M20.3442 5.03174H22.5314V7.21935H20.3442V5.03174Z" fill="black" fill-opacity="0.2"/>
<path d="M23.6252 5.03174H25.8124V7.21935H23.6252V5.03174Z" fill="#B51F24"/>
<path d="M23.6252 5.03174H25.8124V7.21935H23.6252V5.03174Z" fill="black" fill-opacity="0.2"/>
<path d="M35.6569 8.31323H20.3442C19.7396 8.31323 19.2504 8.80247 19.2504 9.40654C19.2504 10.0106 19.7396 10.5003 20.3442 10.5003H35.6568C36.2603 10.5003 36.7505 10.0105 36.7505 9.40654C36.7506 8.80236 36.2603 8.31323 35.6569 8.31323Z" fill="#B51F24"/>
<path d="M35.6569 8.31323H20.3442C19.7396 8.31323 19.2504 8.80247 19.2504 9.40654C19.2504 10.0106 19.7396 10.5003 20.3442 10.5003H35.6568C36.2603 10.5003 36.7505 10.0105 36.7505 9.40654C36.7506 8.80236 36.2603 8.31323 35.6569 8.31323Z" fill="black" fill-opacity="0.2"/>
<path d="M25.8128 11.5942H20.3442C19.7396 11.5942 19.2504 12.084 19.2504 12.6876V17.0629C19.2504 17.667 19.7396 18.1567 20.3442 18.1567H25.8128C26.4169 18.1567 26.9061 17.667 26.9061 17.0629V12.6876C26.9061 12.0839 26.417 11.5942 25.8128 11.5942ZM24.7191 15.969H21.438V13.7814H24.7191V15.969Z" fill="#B51F24"/>
<path d="M25.8128 11.5942H20.3442C19.7396 11.5942 19.2504 12.084 19.2504 12.6876V17.0629C19.2504 17.667 19.7396 18.1567 20.3442 18.1567H25.8128C26.4169 18.1567 26.9061 17.667 26.9061 17.0629V12.6876C26.9061 12.0839 26.417 11.5942 25.8128 11.5942ZM24.7191 15.969H21.438V13.7814H24.7191V15.969Z" fill="black" fill-opacity="0.2"/>
<path d="M35.6569 11.5942H30.1877C29.5841 11.5942 29.0939 12.084 29.0939 12.6876V17.0629C29.0939 17.667 29.5841 18.1567 30.1877 18.1567H35.6569C36.2604 18.1567 36.7507 17.667 36.7507 17.0629V12.6876C36.7507 12.0839 36.2603 11.5942 35.6569 11.5942ZM34.563 15.969H31.2815V13.7814H34.563V15.969Z" fill="#B51F24"/>
<path d="M35.6569 11.5942H30.1877C29.5841 11.5942 29.0939 12.084 29.0939 12.6876V17.0629C29.0939 17.667 29.5841 18.1567 30.1877 18.1567H35.6569C36.2604 18.1567 36.7507 17.667 36.7507 17.0629V12.6876C36.7507 12.0839 36.2603 11.5942 35.6569 11.5942ZM34.563 15.969H31.2815V13.7814H34.563V15.969Z" fill="black" fill-opacity="0.2"/>
<path d="M25.8128 19.2505H20.3442C19.7396 19.2505 19.2504 19.7396 19.2504 20.3442V24.7191C19.2504 25.3232 19.7396 25.8124 20.3442 25.8124H25.8128C26.4169 25.8124 26.9061 25.3232 26.9061 24.7191V20.3442C26.9061 19.7396 26.417 19.2505 25.8128 19.2505ZM24.7191 23.6253H21.438V21.4381H24.7191V23.6253Z" fill="#B51F24"/>
<path d="M25.8128 19.2505H20.3442C19.7396 19.2505 19.2504 19.7396 19.2504 20.3442V24.7191C19.2504 25.3232 19.7396 25.8124 20.3442 25.8124H25.8128C26.4169 25.8124 26.9061 25.3232 26.9061 24.7191V20.3442C26.9061 19.7396 26.417 19.2505 25.8128 19.2505ZM24.7191 23.6253H21.438V21.4381H24.7191V23.6253Z" fill="black" fill-opacity="0.2"/>
<path d="M35.6569 19.2505H30.1877C29.5841 19.2505 29.0939 19.7396 29.0939 20.3442V24.7191C29.0939 25.3232 29.5841 25.8124 30.1877 25.8124H35.6569C36.2604 25.8124 36.7507 25.3232 36.7507 24.7191V20.3442C36.7507 19.7396 36.2603 19.2505 35.6569 19.2505ZM34.563 23.6253H31.2815V21.4381H34.563V23.6253Z" fill="#B51F24"/>
<path d="M35.6569 19.2505H30.1877C29.5841 19.2505 29.0939 19.7396 29.0939 20.3442V24.7191C29.0939 25.3232 29.5841 25.8124 30.1877 25.8124H35.6569C36.2604 25.8124 36.7507 25.3232 36.7507 24.7191V20.3442C36.7507 19.7396 36.2603 19.2505 35.6569 19.2505ZM34.563 23.6253H31.2815V21.4381H34.563V23.6253Z" fill="black" fill-opacity="0.2"/>
<path d="M7.76616 46.5942C6.25832 46.5942 5.03157 47.8211 5.03157 49.3288C5.03157 50.8367 6.25832 52.0623 7.76616 52.0623C9.27401 52.0623 10.5002 50.8367 10.5002 49.3288C10.5002 47.8211 9.27412 46.5942 7.76616 46.5942ZM7.76616 49.8758C7.4644 49.8758 7.21929 49.6296 7.21929 49.3288C7.21929 49.0271 7.4644 48.782 7.76616 48.782C8.06738 48.782 8.31304 49.0271 8.31304 49.3288C8.31315 49.6296 8.06749 49.8758 7.76616 49.8758Z" fill="#B51F24"/>
<path d="M7.76616 46.5942C6.25832 46.5942 5.03157 47.8211 5.03157 49.3288C5.03157 50.8367 6.25832 52.0623 7.76616 52.0623C9.27401 52.0623 10.5002 50.8367 10.5002 49.3288C10.5002 47.8211 9.27412 46.5942 7.76616 46.5942ZM7.76616 49.8758C7.4644 49.8758 7.21929 49.6296 7.21929 49.3288C7.21929 49.0271 7.4644 48.782 7.76616 48.782C8.06738 48.782 8.31304 49.0271 8.31304 49.3288C8.31315 49.6296 8.06749 49.8758 7.76616 49.8758Z" fill="black" fill-opacity="0.2"/>
<path d="M47.6879 45.5005C45.8783 45.5005 44.4065 46.9723 44.4065 48.782C44.4065 50.5905 45.8783 52.0623 47.6879 52.0623C49.4975 52.0623 50.9695 50.5905 50.9695 48.782C50.9695 46.9723 49.4975 45.5005 47.6879 45.5005ZM47.6879 49.8758C47.0843 49.8758 46.5941 49.3845 46.5941 48.782C46.5941 48.1783 47.0843 47.6881 47.6879 47.6881C48.2905 47.6881 48.7818 48.1783 48.7818 48.782C48.7818 49.3845 48.2905 49.8758 47.6879 49.8758Z" fill="#B51F24"/>
<path d="M47.6879 45.5005C45.8783 45.5005 44.4065 46.9723 44.4065 48.782C44.4065 50.5905 45.8783 52.0623 47.6879 52.0623C49.4975 52.0623 50.9695 50.5905 50.9695 48.782C50.9695 46.9723 49.4975 45.5005 47.6879 45.5005ZM47.6879 49.8758C47.0843 49.8758 46.5941 49.3845 46.5941 48.782C46.5941 48.1783 47.0843 47.6881 47.6879 47.6881C48.2905 47.6881 48.7818 48.1783 48.7818 48.782C48.7818 49.3845 48.2905 49.8758 47.6879 49.8758Z" fill="black" fill-opacity="0.2"/>
</svg>
