<svg width="54" height="54" viewBox="0 0 54 54" fill="none" xmlns="http://www.w3.org/2000/svg">
<path d="M49 12C48.4478 12 48 12.4473 48 13C48 13.5527 48.4478 14 49 14C49.5513 14 50 14.4482 50 15V38H4V15C4 14.4482 4.44873 14 5 14C5.55225 14 6 13.5527 6 13C6 12.4473 5.55225 12 5 12C3.3457 12 2 13.3457 2 15V43C2 44.6543 3.3457 46 5 46H22.6125L21.2791 50H19C18.4478 50 18 50.4473 18 51C18 51.5527 18.4478 52 19 52H22H32H35C35.5522 52 36 51.5527 36 51C36 50.4473 35.5522 50 35 50H32.7209L31.3875 46H49C50.6543 46 52 44.6543 52 43V15C52 13.3457 50.6543 12 49 12ZM30.6128 50H23.3872L24.7207 46H29.2793L30.6128 50ZM49 44H30H24H5C4.44873 44 4 43.5518 4 43V40H50V43C50 43.5518 49.5513 44 49 44ZM45 34C45.5522 34 46 33.5527 46 33V5C46 3.3457 44.6543 2 43 2H11C9.3457 2 8 3.3457 8 5V33C8 33.5527 8.44775 34 9 34C9.55225 34 10 33.5527 10 33V10H44V33C44 33.5527 44.4478 34 45 34ZM10 8V5C10 4.44824 10.4487 4 11 4H43C43.5513 4 44 4.44824 44 5V8H10ZM35 6C35 6.55273 34.5522 7 34 7H33C32.4478 7 32 6.55273 32 6C32 5.44727 32.4478 5 33 5H34C34.5522 5 35 5.44727 35 6ZM39 6C39 6.55273 38.5522 7 38 7H37C36.4478 7 36 6.55273 36 6C36 5.44727 36.4478 5 37 5H38C38.5522 5 39 5.44727 39 6ZM43 6C43 6.55273 42.5522 7 42 7H41C40.4478 7 40 6.55273 40 6C40 5.44727 40.4478 5 41 5H42C42.5522 5 43 5.44727 43 6ZM21 16C21 15.4473 21.4478 15 22 15H23C23.5522 15 24 15.4473 24 16C24 16.5527 23.5522 17 23 17H22C21.4478 17 21 16.5527 21 16ZM25 16C25 15.4473 25.4478 15 26 15H27C27.5522 15 28 15.4473 28 16C28 16.5527 27.5522 17 27 17H26C25.4478 17 25 16.5527 25 16ZM24 22C24 22.5527 23.5522 23 23 23H22C21.4478 23 21 22.5527 21 22C21 21.4473 21.4478 21 22 21H23C23.5522 21 24 21.4473 24 22ZM28 22C28 22.5527 27.5522 23 27 23H26C25.4478 23 25 22.5527 25 22C25 21.4473 25.4478 21 26 21H27C27.5522 21 28 21.4473 28 22ZM24 28C24 28.5527 23.5522 29 23 29H22C21.4478 29 21 28.5527 21 28C21 27.4473 21.4478 27 22 27H23C23.5522 27 24 27.4473 24 28ZM28 28C28 28.5527 27.5522 29 27 29H26C25.4478 29 25 28.5527 25 28C25 27.4473 25.4478 27 26 27H27C27.5522 27 28 27.4473 28 28ZM36 15C36 13.3457 34.6543 12 33 12H21C19.3457 12 18 13.3457 18 15H17C15.3457 15 14 16.3457 14 18V26C14 27.6543 15.3457 29 17 29H18C18 30.6543 19.3457 32 21 32H33C34.6543 32 36 30.6543 36 29H37C38.6543 29 40 27.6543 40 26V18C40 16.3457 38.6543 15 37 15H36ZM20 23V21C20 20.4482 20.4487 20 21 20H33C33.5513 20 34 20.4482 34 21V23C34 23.5518 33.5513 24 33 24H21C20.4487 24 20 23.5518 20 23ZM20 15C20 14.4482 20.4487 14 21 14H33C33.5513 14 34 14.4482 34 15V17C34 17.5518 33.5513 18 33 18H21C20.4487 18 20 17.5518 20 17V15ZM17 17H18C18 17.7711 18.3005 18.468 18.7803 19C18.3005 19.532 18 20.2289 18 21H16V18C16 17.4482 16.4487 17 17 17ZM17 27C16.4487 27 16 26.5518 16 26V23H18C18 23.7711 18.3005 24.468 18.7803 25C18.3005 25.532 18 26.2289 18 27H17ZM34 29C34 29.5518 33.5513 30 33 30H21C20.4487 30 20 29.5518 20 29V27C20 26.4482 20.4487 26 21 26H33C33.5513 26 34 26.4482 34 27V29ZM37 27H36C36 26.2289 35.6995 25.532 35.2197 25C35.6995 24.468 36 23.7711 36 23H38V26C38 26.5518 37.5513 27 37 27ZM38 18V21H36C36 20.2289 35.6995 19.532 35.2197 19C35.6995 18.468 36 17.7711 36 17H37C37.5513 17 38 17.4482 38 18Z" fill="#B51F24"/>
<path d="M49 12C48.4478 12 48 12.4473 48 13C48 13.5527 48.4478 14 49 14C49.5513 14 50 14.4482 50 15V38H4V15C4 14.4482 4.44873 14 5 14C5.55225 14 6 13.5527 6 13C6 12.4473 5.55225 12 5 12C3.3457 12 2 13.3457 2 15V43C2 44.6543 3.3457 46 5 46H22.6125L21.2791 50H19C18.4478 50 18 50.4473 18 51C18 51.5527 18.4478 52 19 52H22H32H35C35.5522 52 36 51.5527 36 51C36 50.4473 35.5522 50 35 50H32.7209L31.3875 46H49C50.6543 46 52 44.6543 52 43V15C52 13.3457 50.6543 12 49 12ZM30.6128 50H23.3872L24.7207 46H29.2793L30.6128 50ZM49 44H30H24H5C4.44873 44 4 43.5518 4 43V40H50V43C50 43.5518 49.5513 44 49 44ZM45 34C45.5522 34 46 33.5527 46 33V5C46 3.3457 44.6543 2 43 2H11C9.3457 2 8 3.3457 8 5V33C8 33.5527 8.44775 34 9 34C9.55225 34 10 33.5527 10 33V10H44V33C44 33.5527 44.4478 34 45 34ZM10 8V5C10 4.44824 10.4487 4 11 4H43C43.5513 4 44 4.44824 44 5V8H10ZM35 6C35 6.55273 34.5522 7 34 7H33C32.4478 7 32 6.55273 32 6C32 5.44727 32.4478 5 33 5H34C34.5522 5 35 5.44727 35 6ZM39 6C39 6.55273 38.5522 7 38 7H37C36.4478 7 36 6.55273 36 6C36 5.44727 36.4478 5 37 5H38C38.5522 5 39 5.44727 39 6ZM43 6C43 6.55273 42.5522 7 42 7H41C40.4478 7 40 6.55273 40 6C40 5.44727 40.4478 5 41 5H42C42.5522 5 43 5.44727 43 6ZM21 16C21 15.4473 21.4478 15 22 15H23C23.5522 15 24 15.4473 24 16C24 16.5527 23.5522 17 23 17H22C21.4478 17 21 16.5527 21 16ZM25 16C25 15.4473 25.4478 15 26 15H27C27.5522 15 28 15.4473 28 16C28 16.5527 27.5522 17 27 17H26C25.4478 17 25 16.5527 25 16ZM24 22C24 22.5527 23.5522 23 23 23H22C21.4478 23 21 22.5527 21 22C21 21.4473 21.4478 21 22 21H23C23.5522 21 24 21.4473 24 22ZM28 22C28 22.5527 27.5522 23 27 23H26C25.4478 23 25 22.5527 25 22C25 21.4473 25.4478 21 26 21H27C27.5522 21 28 21.4473 28 22ZM24 28C24 28.5527 23.5522 29 23 29H22C21.4478 29 21 28.5527 21 28C21 27.4473 21.4478 27 22 27H23C23.5522 27 24 27.4473 24 28ZM28 28C28 28.5527 27.5522 29 27 29H26C25.4478 29 25 28.5527 25 28C25 27.4473 25.4478 27 26 27H27C27.5522 27 28 27.4473 28 28ZM36 15C36 13.3457 34.6543 12 33 12H21C19.3457 12 18 13.3457 18 15H17C15.3457 15 14 16.3457 14 18V26C14 27.6543 15.3457 29 17 29H18C18 30.6543 19.3457 32 21 32H33C34.6543 32 36 30.6543 36 29H37C38.6543 29 40 27.6543 40 26V18C40 16.3457 38.6543 15 37 15H36ZM20 23V21C20 20.4482 20.4487 20 21 20H33C33.5513 20 34 20.4482 34 21V23C34 23.5518 33.5513 24 33 24H21C20.4487 24 20 23.5518 20 23ZM20 15C20 14.4482 20.4487 14 21 14H33C33.5513 14 34 14.4482 34 15V17C34 17.5518 33.5513 18 33 18H21C20.4487 18 20 17.5518 20 17V15ZM17 17H18C18 17.7711 18.3005 18.468 18.7803 19C18.3005 19.532 18 20.2289 18 21H16V18C16 17.4482 16.4487 17 17 17ZM17 27C16.4487 27 16 26.5518 16 26V23H18C18 23.7711 18.3005 24.468 18.7803 25C18.3005 25.532 18 26.2289 18 27H17ZM34 29C34 29.5518 33.5513 30 33 30H21C20.4487 30 20 29.5518 20 29V27C20 26.4482 20.4487 26 21 26H33C33.5513 26 34 26.4482 34 27V29ZM37 27H36C36 26.2289 35.6995 25.532 35.2197 25C35.6995 24.468 36 23.7711 36 23H38V26C38 26.5518 37.5513 27 37 27ZM38 18V21H36C36 20.2289 35.6995 19.532 35.2197 19C35.6995 18.468 36 17.7711 36 17H37C37.5513 17 38 17.4482 38 18Z" fill="black" fill-opacity="0.2"/>
</svg>
