<svg width="64" height="65" viewBox="0 0 64 65" fill="none" xmlns="http://www.w3.org/2000/svg">
<path d="M52 11.1666H12C8.26671 11.1666 5.33337 14.1 5.33337 17.8333V47.1666C5.33337 50.9 8.26671 53.8333 12 53.8333H52C55.7334 53.8333 58.6667 50.9 58.6667 47.1666V17.8333C58.6667 14.1 55.7334 11.1666 52 11.1666ZM12 13.8333H52C54.1334 13.8333 56 15.7 56 17.8333V21.8333H8.00004V17.8333C8.00004 15.7 9.86671 13.8333 12 13.8333ZM52 51.1666H12C9.86671 51.1666 8.00004 49.3 8.00004 47.1666V24.5H56V47.1666C56 49.3 54.1334 51.1666 52 51.1666Z" fill="#B51F24"/>
<path d="M52 11.1666H12C8.26671 11.1666 5.33337 14.1 5.33337 17.8333V47.1666C5.33337 50.9 8.26671 53.8333 12 53.8333H52C55.7334 53.8333 58.6667 50.9 58.6667 47.1666V17.8333C58.6667 14.1 55.7334 11.1666 52 11.1666ZM12 13.8333H52C54.1334 13.8333 56 15.7 56 17.8333V21.8333H8.00004V17.8333C8.00004 15.7 9.86671 13.8333 12 13.8333ZM52 51.1666H12C9.86671 51.1666 8.00004 49.3 8.00004 47.1666V24.5H56V47.1666C56 49.3 54.1334 51.1666 52 51.1666Z" fill="black" fill-opacity="0.2"/>
<path d="M12 19.1667C12.7363 19.1667 13.3333 18.5697 13.3333 17.8333C13.3333 17.097 12.7363 16.5 12 16.5C11.2636 16.5 10.6666 17.097 10.6666 17.8333C10.6666 18.5697 11.2636 19.1667 12 19.1667Z" fill="#B51F24"/>
<path d="M12 19.1667C12.7363 19.1667 13.3333 18.5697 13.3333 17.8333C13.3333 17.097 12.7363 16.5 12 16.5C11.2636 16.5 10.6666 17.097 10.6666 17.8333C10.6666 18.5697 11.2636 19.1667 12 19.1667Z" fill="black" fill-opacity="0.2"/>
<path d="M17.3333 19.1667C18.0697 19.1667 18.6667 18.5697 18.6667 17.8333C18.6667 17.097 18.0697 16.5 17.3333 16.5C16.597 16.5 16 17.097 16 17.8333C16 18.5697 16.597 19.1667 17.3333 19.1667Z" fill="#B51F24"/>
<path d="M17.3333 19.1667C18.0697 19.1667 18.6667 18.5697 18.6667 17.8333C18.6667 17.097 18.0697 16.5 17.3333 16.5C16.597 16.5 16 17.097 16 17.8333C16 18.5697 16.597 19.1667 17.3333 19.1667Z" fill="black" fill-opacity="0.2"/>
<path d="M22.6667 19.1667C23.4031 19.1667 24 18.5697 24 17.8333C24 17.097 23.4031 16.5 22.6667 16.5C21.9303 16.5 21.3334 17.097 21.3334 17.8333C21.3334 18.5697 21.9303 19.1667 22.6667 19.1667Z" fill="#B51F24"/>
<path d="M22.6667 19.1667C23.4031 19.1667 24 18.5697 24 17.8333C24 17.097 23.4031 16.5 22.6667 16.5C21.9303 16.5 21.3334 17.097 21.3334 17.8333C21.3334 18.5697 21.9303 19.1667 22.6667 19.1667Z" fill="black" fill-opacity="0.2"/>
<path d="M33.3333 19.1667H52C52.8 19.1667 53.3333 18.6333 53.3333 17.8333C53.3333 17.0333 52.8 16.5 52 16.5H33.3333C32.5333 16.5 32 17.0333 32 17.8333C32 18.6333 32.5333 19.1667 33.3333 19.1667Z" fill="#B51F24"/>
<path d="M33.3333 19.1667H52C52.8 19.1667 53.3333 18.6333 53.3333 17.8333C53.3333 17.0333 52.8 16.5 52 16.5H33.3333C32.5333 16.5 32 17.0333 32 17.8333C32 18.6333 32.5333 19.1667 33.3333 19.1667Z" fill="black" fill-opacity="0.2"/>
<path d="M30.6667 28.5H16C15.4667 28.5 14.6667 29.0333 14.6667 29.5667L12 45.5667C12 45.8333 12 46.3667 12.2667 46.6333C12.5333 46.9 12.8 47.1667 13.3333 47.1667H33.3333C33.6 47.1667 34.1333 46.9 34.4 46.6333C34.6667 46.3667 34.6667 45.8333 34.6667 45.5667L32 29.5667C32 29.0333 31.2 28.5 30.6667 28.5ZM14.9333 44.5L17.0667 31.1667H29.6L31.7333 44.5H14.9333Z" fill="#B51F24"/>
<path d="M30.6667 28.5H16C15.4667 28.5 14.6667 29.0333 14.6667 29.5667L12 45.5667C12 45.8333 12 46.3667 12.2667 46.6333C12.5333 46.9 12.8 47.1667 13.3333 47.1667H33.3333C33.6 47.1667 34.1333 46.9 34.4 46.6333C34.6667 46.3667 34.6667 45.8333 34.6667 45.5667L32 29.5667C32 29.0333 31.2 28.5 30.6667 28.5ZM14.9333 44.5L17.0667 31.1667H29.6L31.7333 44.5H14.9333Z" fill="black" fill-opacity="0.2"/>
<path d="M26.6666 32.5C25.8666 32.5 25.3333 33.0333 25.3333 33.8333V35.9667C25.3333 37.0333 24.5333 38.1 23.2 38.1C21.8666 38.1 21.3333 37.0333 21.3333 35.9667V33.8333C21.3333 33.0333 20.8 32.5 20 32.5C19.2 32.5 18.6666 33.0333 18.6666 33.8333V35.9667C18.6666 38.6333 20.8 40.7667 23.4666 40.7667C26.1333 40.7667 28.2666 38.6333 28.2666 35.9667V33.8333C28 33.0333 27.4666 32.5 26.6666 32.5Z" fill="#B51F24"/>
<path d="M26.6666 32.5C25.8666 32.5 25.3333 33.0333 25.3333 33.8333V35.9667C25.3333 37.0333 24.5333 38.1 23.2 38.1C21.8666 38.1 21.3333 37.0333 21.3333 35.9667V33.8333C21.3333 33.0333 20.8 32.5 20 32.5C19.2 32.5 18.6666 33.0333 18.6666 33.8333V35.9667C18.6666 38.6333 20.8 40.7667 23.4666 40.7667C26.1333 40.7667 28.2666 38.6333 28.2666 35.9667V33.8333C28 33.0333 27.4666 32.5 26.6666 32.5Z" fill="black" fill-opacity="0.2"/>
<path d="M50.6667 28.5H38.6667C37.8667 28.5 37.3334 29.0333 37.3334 29.8333C37.3334 30.6333 37.8667 31.1667 38.6667 31.1667H50.6667C51.4667 31.1667 52 30.6333 52 29.8333C52 29.0333 51.4667 28.5 50.6667 28.5Z" fill="#B51F24"/>
<path d="M50.6667 28.5H38.6667C37.8667 28.5 37.3334 29.0333 37.3334 29.8333C37.3334 30.6333 37.8667 31.1667 38.6667 31.1667H50.6667C51.4667 31.1667 52 30.6333 52 29.8333C52 29.0333 51.4667 28.5 50.6667 28.5Z" fill="black" fill-opacity="0.2"/>
<path d="M50.6667 44.5H38.6667C37.8667 44.5 37.3334 45.0333 37.3334 45.8333C37.3334 46.6333 37.8667 47.1667 38.6667 47.1667H50.6667C51.4667 47.1667 52 46.6333 52 45.8333C52 45.0333 51.4667 44.5 50.6667 44.5Z" fill="#B51F24"/>
<path d="M50.6667 44.5H38.6667C37.8667 44.5 37.3334 45.0333 37.3334 45.8333C37.3334 46.6333 37.8667 47.1667 38.6667 47.1667H50.6667C51.4667 47.1667 52 46.6333 52 45.8333C52 45.0333 51.4667 44.5 50.6667 44.5Z" fill="black" fill-opacity="0.2"/>
<path d="M50.6667 36.5H38.6667C37.8667 36.5 37.3334 37.0333 37.3334 37.8333C37.3334 38.6333 37.8667 39.1667 38.6667 39.1667H50.6667C51.4667 39.1667 52 38.6333 52 37.8333C52 37.0333 51.4667 36.5 50.6667 36.5Z" fill="#B51F24"/>
<path d="M50.6667 36.5H38.6667C37.8667 36.5 37.3334 37.0333 37.3334 37.8333C37.3334 38.6333 37.8667 39.1667 38.6667 39.1667H50.6667C51.4667 39.1667 52 38.6333 52 37.8333C52 37.0333 51.4667 36.5 50.6667 36.5Z" fill="black" fill-opacity="0.2"/>
<path d="M50.6666 32.5H44C43.2 32.5 42.6666 33.0333 42.6666 33.8333C42.6666 34.6333 43.2 35.1667 44 35.1667H50.6666C51.4666 35.1667 52 34.6333 52 33.8333C52 33.0333 51.4666 32.5 50.6666 32.5Z" fill="#B51F24"/>
<path d="M50.6666 32.5H44C43.2 32.5 42.6666 33.0333 42.6666 33.8333C42.6666 34.6333 43.2 35.1667 44 35.1667H50.6666C51.4666 35.1667 52 34.6333 52 33.8333C52 33.0333 51.4666 32.5 50.6666 32.5Z" fill="black" fill-opacity="0.2"/>
<path d="M50.6666 40.5H44C43.2 40.5 42.6666 41.0333 42.6666 41.8333C42.6666 42.6333 43.2 43.1667 44 43.1667H50.6666C51.4666 43.1667 52 42.6333 52 41.8333C52 41.0333 51.4666 40.5 50.6666 40.5Z" fill="#B51F24"/>
<path d="M50.6666 40.5H44C43.2 40.5 42.6666 41.0333 42.6666 41.8333C42.6666 42.6333 43.2 43.1667 44 43.1667H50.6666C51.4666 43.1667 52 42.6333 52 41.8333C52 41.0333 51.4666 40.5 50.6666 40.5Z" fill="black" fill-opacity="0.2"/>
</svg>
